<?xml version="1.0" encoding="UTF-8" standalone="no"?>
<!DOCTYPE svg PUBLIC "-//W3C//DTD SVG 1.1//EN"
 "http://www.w3.org/Graphics/SVG/1.1/DTD/svg11.dtd">
<!-- Generated by graphviz version 3.0.0 (20220226.1711)
 -->
<!-- Title: dependencies Pages: 1 -->
<svg width="356pt" height="174pt"
 viewBox="0.00 0.00 356.00 173.80" xmlns="http://www.w3.org/2000/svg" xmlns:xlink="http://www.w3.org/1999/xlink">
<g id="graph0" class="graph" transform="scale(1 1) rotate(0) translate(4 169.8)">
<title>dependencies</title>
<polygon fill="white" stroke="transparent" points="-4,4 -4,-169.8 352,-169.8 352,4 -4,4"/>
<text text-anchor="middle" x="174" y="-8.2" font-family="sans-serif" font-size="14.00">dependencies</text>
<g id="clust1" class="cluster">
<title>cluster_eshopApiModule</title>
<polygon fill="none" stroke="black" stroke-dasharray="1,5" points="8,-32.8 8,-157.8 340,-157.8 340,-32.8 8,-32.8"/>
</g>
<g id="clust6" class="cluster">
<title>cluster_eshopApiModule_providers</title>
<polygon fill="none" stroke="black" points="16,-40.8 16,-92.8 332,-92.8 332,-40.8 16,-40.8"/>
</g>
<!-- AuthenticationAPI -->
<g id="node1" class="node">
<title>AuthenticationAPI</title>
<ellipse fill="#fdb462" stroke="black" cx="240" cy="-66.8" rx="83.97" ry="18"/>
<text text-anchor="middle" x="240" y="-62.6" font-family="Times,serif" font-size="14.00">AuthenticationAPI</text>
</g>
<!-- eshopApiModule -->
<g id="node3" class="node">
<title>eshopApiModule</title>
<polygon fill="#8dd3c7" stroke="black" points="216.71,-149.8 213.71,-153.8 192.71,-153.8 189.71,-149.8 103.29,-149.8 103.29,-113.8 216.71,-113.8 216.71,-149.8"/>
<text text-anchor="middle" x="160" y="-127.6" font-family="Times,serif" font-size="14.00">eshopApiModule</text>
</g>
<!-- AuthenticationAPI&#45;&gt;eshopApiModule -->
<g id="edge1" class="edge">
<title>AuthenticationAPI&#45;&gt;eshopApiModule</title>
<path fill="none" stroke="black" d="M186.31,-80.9C186.31,-80.9 186.31,-103.52 186.31,-103.52"/>
<polygon fill="black" stroke="black" points="182.81,-103.52 186.31,-113.52 189.81,-103.52 182.81,-103.52"/>
</g>
<!-- Http2Eshop -->
<g id="node2" class="node">
<title>Http2Eshop</title>
<ellipse fill="#fdb462" stroke="black" cx="81" cy="-66.8" rx="57.35" ry="18"/>
<text text-anchor="middle" x="81" y="-62.6" font-family="Times,serif" font-size="14.00">Http2Eshop</text>
</g>
<!-- Http2Eshop&#45;&gt;eshopApiModule -->
<g id="edge2" class="edge">
<title>Http2Eshop&#45;&gt;eshopApiModule</title>
<path fill="none" stroke="black" d="M120.78,-79.95C120.78,-79.95 120.78,-103.49 120.78,-103.49"/>
<polygon fill="black" stroke="black" points="117.28,-103.49 120.78,-113.49 124.28,-103.49 117.28,-103.49"/>
</g>
</g>
</svg>
