<?xml version="1.0" encoding="UTF-8" standalone="no"?>
<!DOCTYPE svg PUBLIC "-//W3C//DTD SVG 1.1//EN"
 "http://www.w3.org/Graphics/SVG/1.1/DTD/svg11.dtd">
<!-- Generated by graphviz version 3.0.0 (20220226.1711)
 -->
<!-- Title: dependencies Pages: 1 -->
<svg width="498pt" height="174pt"
 viewBox="0.00 0.00 498.00 173.80" xmlns="http://www.w3.org/2000/svg" xmlns:xlink="http://www.w3.org/1999/xlink">
<g id="graph0" class="graph" transform="scale(1 1) rotate(0) translate(4 169.8)">
<title>dependencies</title>
<polygon fill="white" stroke="transparent" points="-4,4 -4,-169.8 494,-169.8 494,4 -4,4"/>
<text text-anchor="middle" x="245" y="-8.2" font-family="sans-serif" font-size="14.00">dependencies</text>
<g id="clust1" class="cluster">
<title>cluster_eshopApiModule</title>
<polygon fill="none" stroke="black" stroke-dasharray="1,5" points="8,-32.8 8,-157.8 482,-157.8 482,-32.8 8,-32.8"/>
</g>
<g id="clust3" class="cluster">
<title>cluster_eshopApiModule_imports</title>
<polygon fill="none" stroke="black" points="340,-40.8 340,-92.8 474,-92.8 474,-40.8 340,-40.8"/>
</g>
<g id="clust6" class="cluster">
<title>cluster_eshopApiModule_providers</title>
<polygon fill="none" stroke="black" points="16,-40.8 16,-92.8 332,-92.8 332,-40.8 16,-40.8"/>
</g>
<!-- HttpClientModule -->
<g id="node1" class="node">
<title>HttpClientModule</title>
<polygon fill="#8dd3c7" stroke="black" points="466.16,-84.8 463.16,-88.8 442.16,-88.8 439.16,-84.8 347.84,-84.8 347.84,-48.8 466.16,-48.8 466.16,-84.8"/>
<text text-anchor="middle" x="407" y="-62.6" font-family="Times,serif" font-size="14.00">HttpClientModule</text>
</g>
<!-- eshopApiModule -->
<g id="node2" class="node">
<title>eshopApiModule</title>
<polygon fill="#8dd3c7" stroke="black" points="323.71,-149.8 320.71,-153.8 299.71,-153.8 296.71,-149.8 210.29,-149.8 210.29,-113.8 323.71,-113.8 323.71,-149.8"/>
<text text-anchor="middle" x="267" y="-127.6" font-family="Times,serif" font-size="14.00">eshopApiModule</text>
</g>
<!-- HttpClientModule&#45;&gt;eshopApiModule -->
<g id="edge1" class="edge">
<title>HttpClientModule&#45;&gt;eshopApiModule</title>
<path fill="none" stroke="black" d="M407,-84.91C407,-104.14 407,-131.8 407,-131.8 407,-131.8 333.94,-131.8 333.94,-131.8"/>
<polygon fill="black" stroke="black" points="333.94,-128.3 323.94,-131.8 333.94,-135.3 333.94,-128.3"/>
</g>
<!-- Http2Eshop -->
<g id="node3" class="node">
<title>Http2Eshop</title>
<ellipse fill="#fdb462" stroke="black" cx="267" cy="-66.8" rx="57.35" ry="18"/>
<text text-anchor="middle" x="267" y="-62.6" font-family="Times,serif" font-size="14.00">Http2Eshop</text>
</g>
<!-- Http2Eshop&#45;&gt;eshopApiModule -->
<g id="edge2" class="edge">
<title>Http2Eshop&#45;&gt;eshopApiModule</title>
<path fill="none" stroke="black" d="M267,-84.91C267,-84.91 267,-103.79 267,-103.79"/>
<polygon fill="black" stroke="black" points="263.5,-103.79 267,-113.79 270.5,-103.79 263.5,-103.79"/>
</g>
<!-- AuthenticationAPI -->
<g id="node4" class="node">
<title>AuthenticationAPI</title>
<ellipse fill="#fdb462" stroke="black" cx="108" cy="-66.8" rx="83.97" ry="18"/>
<text text-anchor="middle" x="108" y="-62.6" font-family="Times,serif" font-size="14.00">AuthenticationAPI</text>
</g>
<!-- AuthenticationAPI&#45;&gt;eshopApiModule -->
<g id="edge3" class="edge">
<title>AuthenticationAPI&#45;&gt;eshopApiModule</title>
<path fill="none" stroke="black" d="M108,-84.91C108,-104.14 108,-131.8 108,-131.8 108,-131.8 200.05,-131.8 200.05,-131.8"/>
<polygon fill="black" stroke="black" points="200.05,-135.3 210.05,-131.8 200.05,-128.3 200.05,-135.3"/>
</g>
</g>
</svg>
