<?xml version="1.0" encoding="UTF-8" standalone="no"?>
<!DOCTYPE svg PUBLIC "-//W3C//DTD SVG 1.1//EN"
 "http://www.w3.org/Graphics/SVG/1.1/DTD/svg11.dtd">
<!-- Generated by graphviz version 3.0.0 (20220226.1711)
 -->
<!-- Title: dependencies Pages: 1 -->
<svg width="557pt" height="312pt"
 viewBox="0.00 0.00 557.00 311.80" xmlns="http://www.w3.org/2000/svg" xmlns:xlink="http://www.w3.org/1999/xlink">
<g id="graph0" class="graph" transform="scale(1 1) rotate(0) translate(4 307.8)">
<title>dependencies</title>
<polygon fill="white" stroke="transparent" points="-4,4 -4,-307.8 553,-307.8 553,4 -4,4"/>
<text text-anchor="middle" x="274.5" y="-8.2" font-family="sans-serif" font-size="14.00">dependencies</text>
<g id="clust1" class="cluster">
<title>cluster_ProductEditModule</title>
<polygon fill="none" stroke="black" stroke-dasharray="1,5" points="8,-32.8 8,-295.8 541,-295.8 541,-32.8 8,-32.8"/>
</g>
<g id="clust5" class="cluster">
<title>cluster_ProductEditModule_exports</title>
<polygon fill="none" stroke="black" points="156,-235.8 156,-287.8 324,-287.8 324,-235.8 156,-235.8"/>
</g>
<g id="clust3" class="cluster">
<title>cluster_ProductEditModule_ProductEditComponent_providers</title>
<polygon fill="none" stroke="black" points="355,-40.8 355,-157.8 533,-157.8 533,-40.8 355,-40.8"/>
</g>
<g id="clust4" class="cluster">
<title>cluster_ProductEditModule_imports</title>
<polygon fill="none" stroke="black" points="16,-105.8 16,-157.8 347,-157.8 347,-105.8 16,-105.8"/>
</g>
<!-- ProductEditComponent -->
<g id="node1" class="node">
<title>ProductEditComponent</title>
<polygon fill="#ffffb3" stroke="black" points="514.21,-149.8 365.79,-149.8 365.79,-113.8 514.21,-113.8 514.21,-149.8"/>
<text text-anchor="middle" x="440" y="-127.6" font-family="Times,serif" font-size="14.00">ProductEditComponent</text>
</g>
<!-- ProductEditModule -->
<g id="node2" class="node">
<title>ProductEditModule</title>
<polygon fill="#8dd3c7" stroke="black" points="303.44,-214.8 300.44,-218.8 279.44,-218.8 276.44,-214.8 176.56,-214.8 176.56,-178.8 303.44,-178.8 303.44,-214.8"/>
<text text-anchor="middle" x="240" y="-192.6" font-family="Times,serif" font-size="14.00">ProductEditModule</text>
</g>
<!-- ProductEditComponent&#45;&gt;ProductEditModule -->
<g id="edge1" class="edge">
<title>ProductEditComponent&#45;&gt;ProductEditModule</title>
<path fill="none" stroke="black" d="M440,-149.91C440,-169.14 440,-196.8 440,-196.8 440,-196.8 313.28,-196.8 313.28,-196.8"/>
<polygon fill="black" stroke="black" points="313.28,-193.3 303.28,-196.8 313.28,-200.3 313.28,-193.3"/>
</g>
<!-- ProductEditComponent  -->
<g id="node6" class="node">
<title>ProductEditComponent </title>
<polygon fill="#fb8072" stroke="black" points="315.71,-279.8 164.29,-279.8 164.29,-243.8 315.71,-243.8 315.71,-279.8"/>
<text text-anchor="middle" x="240" y="-257.6" font-family="Times,serif" font-size="14.00">ProductEditComponent </text>
</g>
<!-- ProductEditModule&#45;&gt;ProductEditComponent  -->
<g id="edge5" class="edge">
<title>ProductEditModule&#45;&gt;ProductEditComponent </title>
<path fill="none" stroke="black" stroke-dasharray="5,2" d="M240,-214.91C240,-214.91 240,-233.79 240,-233.79"/>
<polygon fill="black" stroke="black" points="236.5,-233.79 240,-243.79 243.5,-233.79 236.5,-233.79"/>
</g>
<!-- ProductsPresenter -->
<g id="node3" class="node">
<title>ProductsPresenter</title>
<ellipse fill="#fdb462" stroke="black" cx="444" cy="-66.8" rx="80.53" ry="18"/>
<text text-anchor="middle" x="444" y="-62.6" font-family="Times,serif" font-size="14.00">ProductsPresenter</text>
</g>
<!-- ProductsPresenter&#45;&gt;ProductEditComponent -->
<g id="edge2" class="edge">
<title>ProductsPresenter&#45;&gt;ProductEditComponent</title>
<path fill="none" stroke="black" d="M440,-84.91C440,-84.91 440,-103.79 440,-103.79"/>
<polygon fill="black" stroke="black" points="436.5,-103.79 440,-113.79 443.5,-103.79 436.5,-103.79"/>
</g>
<!-- ProductEditPageRoutingModule -->
<g id="node4" class="node">
<title>ProductEditPageRoutingModule</title>
<polygon fill="#8dd3c7" stroke="black" points="339.27,-149.8 336.27,-153.8 315.27,-153.8 312.27,-149.8 140.73,-149.8 140.73,-113.8 339.27,-113.8 339.27,-149.8"/>
<text text-anchor="middle" x="240" y="-127.6" font-family="Times,serif" font-size="14.00">ProductEditPageRoutingModule</text>
</g>
<!-- ProductEditPageRoutingModule&#45;&gt;ProductEditModule -->
<g id="edge3" class="edge">
<title>ProductEditPageRoutingModule&#45;&gt;ProductEditModule</title>
<path fill="none" stroke="black" d="M240,-149.91C240,-149.91 240,-168.79 240,-168.79"/>
<polygon fill="black" stroke="black" points="236.5,-168.79 240,-178.79 243.5,-168.79 236.5,-168.79"/>
</g>
<!-- SharedModule -->
<g id="node5" class="node">
<title>SharedModule</title>
<polygon fill="#8dd3c7" stroke="black" points="122.43,-149.8 119.43,-153.8 98.43,-153.8 95.43,-149.8 23.57,-149.8 23.57,-113.8 122.43,-113.8 122.43,-149.8"/>
<text text-anchor="middle" x="73" y="-127.6" font-family="Times,serif" font-size="14.00">SharedModule</text>
</g>
<!-- SharedModule&#45;&gt;ProductEditModule -->
<g id="edge4" class="edge">
<title>SharedModule&#45;&gt;ProductEditModule</title>
<path fill="none" stroke="black" d="M73,-149.91C73,-169.14 73,-196.8 73,-196.8 73,-196.8 166.39,-196.8 166.39,-196.8"/>
<polygon fill="black" stroke="black" points="166.39,-200.3 176.39,-196.8 166.39,-193.3 166.39,-200.3"/>
</g>
</g>
</svg>
