<?xml version="1.0" encoding="UTF-8" standalone="no"?>
<!DOCTYPE svg PUBLIC "-//W3C//DTD SVG 1.1//EN"
 "http://www.w3.org/Graphics/SVG/1.1/DTD/svg11.dtd">
<!-- Generated by graphviz version 3.0.0 (20220226.1711)
 -->
<!-- Title: dependencies Pages: 1 -->
<svg width="557pt" height="312pt"
 viewBox="0.00 0.00 557.00 311.80" xmlns="http://www.w3.org/2000/svg" xmlns:xlink="http://www.w3.org/1999/xlink">
<g id="graph0" class="graph" transform="scale(1 1) rotate(0) translate(4 307.8)">
<title>dependencies</title>
<polygon fill="white" stroke="transparent" points="-4,4 -4,-307.8 553,-307.8 553,4 -4,4"/>
<text text-anchor="middle" x="274.5" y="-8.2" font-family="sans-serif" font-size="14.00">dependencies</text>
<g id="clust1" class="cluster">
<title>cluster_ProductEditModule</title>
<polygon fill="none" stroke="black" stroke-dasharray="1,5" points="8,-32.8 8,-295.8 541,-295.8 541,-32.8 8,-32.8"/>
</g>
<g id="clust4" class="cluster">
<title>cluster_ProductEditModule_imports</title>
<polygon fill="none" stroke="black" points="202,-105.8 202,-157.8 533,-157.8 533,-105.8 202,-105.8"/>
</g>
<g id="clust3" class="cluster">
<title>cluster_ProductEditModule_ProductEditComponent_providers</title>
<polygon fill="none" stroke="black" points="16,-40.8 16,-157.8 194,-157.8 194,-40.8 16,-40.8"/>
</g>
<g id="clust5" class="cluster">
<title>cluster_ProductEditModule_exports</title>
<polygon fill="none" stroke="black" points="175,-235.8 175,-287.8 343,-287.8 343,-235.8 175,-235.8"/>
</g>
<!-- ProductEditComponent -->
<g id="node1" class="node">
<title>ProductEditComponent</title>
<polygon fill="#ffffb3" stroke="black" points="182.21,-149.8 33.79,-149.8 33.79,-113.8 182.21,-113.8 182.21,-149.8"/>
<text text-anchor="middle" x="108" y="-127.6" font-family="Times,serif" font-size="14.00">ProductEditComponent</text>
</g>
<!-- ProductEditModule -->
<g id="node2" class="node">
<title>ProductEditModule</title>
<polygon fill="#8dd3c7" stroke="black" points="322.44,-214.8 319.44,-218.8 298.44,-218.8 295.44,-214.8 195.56,-214.8 195.56,-178.8 322.44,-178.8 322.44,-214.8"/>
<text text-anchor="middle" x="259" y="-192.6" font-family="Times,serif" font-size="14.00">ProductEditModule</text>
</g>
<!-- ProductEditComponent&#45;&gt;ProductEditModule -->
<g id="edge1" class="edge">
<title>ProductEditComponent&#45;&gt;ProductEditModule</title>
<path fill="none" stroke="black" d="M182.22,-131.8C194.21,-131.8 202.78,-131.8 202.78,-131.8 202.78,-131.8 202.78,-168.69 202.78,-168.69"/>
<polygon fill="black" stroke="black" points="199.28,-168.69 202.78,-178.69 206.28,-168.69 199.28,-168.69"/>
</g>
<!-- ProductEditComponent  -->
<g id="node6" class="node">
<title>ProductEditComponent </title>
<polygon fill="#fb8072" stroke="black" points="334.71,-279.8 183.29,-279.8 183.29,-243.8 334.71,-243.8 334.71,-279.8"/>
<text text-anchor="middle" x="259" y="-257.6" font-family="Times,serif" font-size="14.00">ProductEditComponent </text>
</g>
<!-- ProductEditModule&#45;&gt;ProductEditComponent  -->
<g id="edge5" class="edge">
<title>ProductEditModule&#45;&gt;ProductEditComponent </title>
<path fill="none" stroke="black" stroke-dasharray="5,2" d="M259,-214.91C259,-214.91 259,-233.79 259,-233.79"/>
<polygon fill="black" stroke="black" points="255.5,-233.79 259,-243.79 262.5,-233.79 255.5,-233.79"/>
</g>
<!-- ProductsPresenter -->
<g id="node3" class="node">
<title>ProductsPresenter</title>
<ellipse fill="#fdb462" stroke="black" cx="105" cy="-66.8" rx="80.53" ry="18"/>
<text text-anchor="middle" x="105" y="-62.6" font-family="Times,serif" font-size="14.00">ProductsPresenter</text>
</g>
<!-- ProductsPresenter&#45;&gt;ProductEditComponent -->
<g id="edge2" class="edge">
<title>ProductsPresenter&#45;&gt;ProductEditComponent</title>
<path fill="none" stroke="black" d="M108,-84.91C108,-84.91 108,-103.79 108,-103.79"/>
<polygon fill="black" stroke="black" points="104.5,-103.79 108,-113.79 111.5,-103.79 104.5,-103.79"/>
</g>
<!-- ProductEditPageRoutingModule -->
<g id="node4" class="node">
<title>ProductEditPageRoutingModule</title>
<polygon fill="#8dd3c7" stroke="black" points="525.27,-149.8 522.27,-153.8 501.27,-153.8 498.27,-149.8 326.73,-149.8 326.73,-113.8 525.27,-113.8 525.27,-149.8"/>
<text text-anchor="middle" x="426" y="-127.6" font-family="Times,serif" font-size="14.00">ProductEditPageRoutingModule</text>
</g>
<!-- ProductEditPageRoutingModule&#45;&gt;ProductEditModule -->
<g id="edge3" class="edge">
<title>ProductEditPageRoutingModule&#45;&gt;ProductEditModule</title>
<path fill="none" stroke="black" d="M330.74,-149.91C330.74,-169.14 330.74,-196.8 330.74,-196.8 330.74,-196.8 329.89,-196.8 329.89,-196.8"/>
<polygon fill="black" stroke="black" points="332.23,-193.3 322.23,-196.8 332.23,-200.3 332.23,-193.3"/>
</g>
<!-- SharedModule -->
<g id="node5" class="node">
<title>SharedModule</title>
<polygon fill="#8dd3c7" stroke="black" points="308.43,-149.8 305.43,-153.8 284.43,-153.8 281.43,-149.8 209.57,-149.8 209.57,-113.8 308.43,-113.8 308.43,-149.8"/>
<text text-anchor="middle" x="259" y="-127.6" font-family="Times,serif" font-size="14.00">SharedModule</text>
</g>
<!-- SharedModule&#45;&gt;ProductEditModule -->
<g id="edge4" class="edge">
<title>SharedModule&#45;&gt;ProductEditModule</title>
<path fill="none" stroke="black" d="M259,-149.91C259,-149.91 259,-168.79 259,-168.79"/>
<polygon fill="black" stroke="black" points="255.5,-168.79 259,-178.79 262.5,-168.79 255.5,-168.79"/>
</g>
</g>
</svg>
