<?xml version="1.0" encoding="UTF-8" standalone="no"?>
<!DOCTYPE svg PUBLIC "-//W3C//DTD SVG 1.1//EN"
 "http://www.w3.org/Graphics/SVG/1.1/DTD/svg11.dtd">
<!-- Generated by graphviz version 3.0.0 (20220226.1711)
 -->
<!-- Title: dependencies Pages: 1 -->
<svg width="578pt" height="247pt"
 viewBox="0.00 0.00 578.00 246.80" xmlns="http://www.w3.org/2000/svg" xmlns:xlink="http://www.w3.org/1999/xlink">
<g id="graph0" class="graph" transform="scale(1 1) rotate(0) translate(4 242.8)">
<title>dependencies</title>
<polygon fill="white" stroke="transparent" points="-4,4 -4,-242.8 574,-242.8 574,4 -4,4"/>
<text text-anchor="middle" x="285" y="-8.2" font-family="sans-serif" font-size="14.00">dependencies</text>
<g id="clust1" class="cluster">
<title>cluster_SharedModule</title>
<polygon fill="none" stroke="black" stroke-dasharray="1,5" points="8,-32.8 8,-230.8 562,-230.8 562,-32.8 8,-32.8"/>
</g>
<g id="clust2" class="cluster">
<title>cluster_SharedModule_declarations</title>
<polygon fill="none" stroke="black" points="432,-40.8 432,-92.8 552,-92.8 552,-40.8 432,-40.8"/>
</g>
<g id="clust4" class="cluster">
<title>cluster_SharedModule_imports</title>
<polygon fill="none" stroke="black" points="20,-40.8 20,-92.8 424,-92.8 424,-40.8 20,-40.8"/>
</g>
<g id="clust5" class="cluster">
<title>cluster_SharedModule_exports</title>
<polygon fill="none" stroke="black" points="16,-170.8 16,-222.8 554,-222.8 554,-170.8 16,-170.8"/>
</g>
<!-- StarComponent -->
<g id="node1" class="node">
<title>StarComponent</title>
<polygon fill="#ffffb3" stroke="black" points="543.88,-84.8 440.12,-84.8 440.12,-48.8 543.88,-48.8 543.88,-84.8"/>
<text text-anchor="middle" x="492" y="-62.6" font-family="Times,serif" font-size="14.00">StarComponent</text>
</g>
<!-- SharedModule -->
<g id="node2" class="node">
<title>SharedModule</title>
<polygon fill="#8dd3c7" stroke="black" points="265.43,-149.8 262.43,-153.8 241.43,-153.8 238.43,-149.8 166.57,-149.8 166.57,-113.8 265.43,-113.8 265.43,-149.8"/>
<text text-anchor="middle" x="216" y="-127.6" font-family="Times,serif" font-size="14.00">SharedModule</text>
</g>
<!-- StarComponent&#45;&gt;SharedModule -->
<g id="edge1" class="edge">
<title>StarComponent&#45;&gt;SharedModule</title>
<path fill="none" stroke="black" d="M474.69,-85.07C474.69,-103.36 474.69,-128.8 474.69,-128.8 474.69,-128.8 275.27,-128.8 275.27,-128.8"/>
<polygon fill="black" stroke="black" points="275.27,-125.3 265.27,-128.8 275.27,-132.3 275.27,-125.3"/>
</g>
<!-- StarComponent  -->
<g id="node6" class="node">
<title>StarComponent </title>
<polygon fill="#fb8072" stroke="black" points="545.88,-214.8 438.12,-214.8 438.12,-178.8 545.88,-178.8 545.88,-214.8"/>
<text text-anchor="middle" x="492" y="-192.6" font-family="Times,serif" font-size="14.00">StarComponent </text>
</g>
<!-- SharedModule&#45;&gt;StarComponent  -->
<g id="edge5" class="edge">
<title>SharedModule&#45;&gt;StarComponent </title>
<path fill="none" stroke="black" stroke-dasharray="5,2" d="M265.43,-135.8C349.02,-135.8 509.31,-135.8 509.31,-135.8 509.31,-135.8 509.31,-168.5 509.31,-168.5"/>
<polygon fill="black" stroke="black" points="505.81,-168.5 509.31,-178.5 512.81,-168.5 505.81,-168.5"/>
</g>
<!-- CommonModule  -->
<g id="node7" class="node">
<title>CommonModule </title>
<polygon fill="#fb8072" stroke="black" points="420.67,-214.8 305.33,-214.8 305.33,-178.8 420.67,-178.8 420.67,-214.8"/>
<text text-anchor="middle" x="363" y="-192.6" font-family="Times,serif" font-size="14.00">CommonModule </text>
</g>
<!-- SharedModule&#45;&gt;CommonModule  -->
<g id="edge6" class="edge">
<title>SharedModule&#45;&gt;CommonModule </title>
<path fill="none" stroke="black" stroke-dasharray="5,2" d="M265.52,-142.8C300.89,-142.8 342.22,-142.8 342.22,-142.8 342.22,-142.8 342.22,-168.52 342.22,-168.52"/>
<polygon fill="black" stroke="black" points="338.72,-168.52 342.22,-178.52 345.72,-168.52 338.72,-168.52"/>
</g>
<!-- ReactiveFormsModule  -->
<g id="node8" class="node">
<title>ReactiveFormsModule </title>
<polygon fill="#fb8072" stroke="black" points="287.81,-214.8 140.19,-214.8 140.19,-178.8 287.81,-178.8 287.81,-214.8"/>
<text text-anchor="middle" x="214" y="-192.6" font-family="Times,serif" font-size="14.00">ReactiveFormsModule </text>
</g>
<!-- SharedModule&#45;&gt;ReactiveFormsModule  -->
<g id="edge7" class="edge">
<title>SharedModule&#45;&gt;ReactiveFormsModule </title>
<path fill="none" stroke="black" stroke-dasharray="5,2" d="M216,-149.91C216,-149.91 216,-168.79 216,-168.79"/>
<polygon fill="black" stroke="black" points="212.5,-168.79 216,-178.79 219.5,-168.79 212.5,-168.79"/>
</g>
<!-- FormsModule  -->
<g id="node9" class="node">
<title>FormsModule </title>
<polygon fill="#fb8072" stroke="black" points="122.34,-214.8 23.66,-214.8 23.66,-178.8 122.34,-178.8 122.34,-214.8"/>
<text text-anchor="middle" x="73" y="-192.6" font-family="Times,serif" font-size="14.00">FormsModule </text>
</g>
<!-- SharedModule&#45;&gt;FormsModule  -->
<g id="edge8" class="edge">
<title>SharedModule&#45;&gt;FormsModule </title>
<path fill="none" stroke="black" stroke-dasharray="5,2" d="M166.54,-137.8C120.75,-137.8 59.69,-137.8 59.69,-137.8 59.69,-137.8 59.69,-168.78 59.69,-168.78"/>
<polygon fill="black" stroke="black" points="56.19,-168.78 59.69,-178.78 63.19,-168.78 56.19,-168.78"/>
</g>
<!-- CommonModule -->
<g id="node3" class="node">
<title>CommonModule</title>
<polygon fill="#8dd3c7" stroke="black" points="415.67,-84.8 412.67,-88.8 391.67,-88.8 388.67,-84.8 304.33,-84.8 304.33,-48.8 415.67,-48.8 415.67,-84.8"/>
<text text-anchor="middle" x="360" y="-62.6" font-family="Times,serif" font-size="14.00">CommonModule</text>
</g>
<!-- CommonModule&#45;&gt;SharedModule -->
<g id="edge2" class="edge">
<title>CommonModule&#45;&gt;SharedModule</title>
<path fill="none" stroke="black" d="M379.03,-84.81C379.03,-100.85 379.03,-121.8 379.03,-121.8 379.03,-121.8 275.36,-121.8 275.36,-121.8"/>
<polygon fill="black" stroke="black" points="275.36,-118.3 265.36,-121.8 275.36,-125.3 275.36,-118.3"/>
</g>
<!-- ReactiveFormsModule -->
<g id="node4" class="node">
<title>ReactiveFormsModule</title>
<polygon fill="#8dd3c7" stroke="black" points="286.31,-84.8 283.31,-88.8 262.31,-88.8 259.31,-84.8 141.69,-84.8 141.69,-48.8 286.31,-48.8 286.31,-84.8"/>
<text text-anchor="middle" x="214" y="-62.6" font-family="Times,serif" font-size="14.00">ReactiveFormsModule</text>
</g>
<!-- ReactiveFormsModule&#45;&gt;SharedModule -->
<g id="edge3" class="edge">
<title>ReactiveFormsModule&#45;&gt;SharedModule</title>
<path fill="none" stroke="black" d="M216,-84.91C216,-84.91 216,-103.79 216,-103.79"/>
<polygon fill="black" stroke="black" points="212.5,-103.79 216,-113.79 219.5,-103.79 212.5,-103.79"/>
</g>
<!-- FormsModule -->
<g id="node5" class="node">
<title>FormsModule</title>
<polygon fill="#8dd3c7" stroke="black" points="123.84,-84.8 120.84,-88.8 99.84,-88.8 96.84,-84.8 28.16,-84.8 28.16,-48.8 123.84,-48.8 123.84,-84.8"/>
<text text-anchor="middle" x="76" y="-62.6" font-family="Times,serif" font-size="14.00">FormsModule</text>
</g>
<!-- FormsModule&#45;&gt;SharedModule -->
<g id="edge4" class="edge">
<title>FormsModule&#45;&gt;SharedModule</title>
<path fill="none" stroke="black" d="M91.06,-84.82C91.06,-102.17 91.06,-125.8 91.06,-125.8 91.06,-125.8 156.62,-125.8 156.62,-125.8"/>
<polygon fill="black" stroke="black" points="156.62,-129.3 166.62,-125.8 156.62,-122.3 156.62,-129.3"/>
</g>
</g>
</svg>
