<?xml version="1.0" encoding="UTF-8" standalone="no"?>
<!DOCTYPE svg PUBLIC "-//W3C//DTD SVG 1.1//EN"
 "http://www.w3.org/Graphics/SVG/1.1/DTD/svg11.dtd">
<!-- Generated by graphviz version 3.0.0 (20220226.1711)
 -->
<!-- Title: dependencies Pages: 1 -->
<svg width="550pt" height="312pt"
 viewBox="0.00 0.00 550.00 311.80" xmlns="http://www.w3.org/2000/svg" xmlns:xlink="http://www.w3.org/1999/xlink">
<g id="graph0" class="graph" transform="scale(1 1) rotate(0) translate(4 307.8)">
<title>dependencies</title>
<polygon fill="white" stroke="transparent" points="-4,4 -4,-307.8 546,-307.8 546,4 -4,4"/>
<text text-anchor="middle" x="271" y="-8.2" font-family="sans-serif" font-size="14.00">dependencies</text>
<g id="clust1" class="cluster">
<title>cluster_ProductNewModule</title>
<polygon fill="none" stroke="black" stroke-dasharray="1,5" points="8,-32.8 8,-295.8 534,-295.8 534,-32.8 8,-32.8"/>
</g>
<g id="clust5" class="cluster">
<title>cluster_ProductNewModule_exports</title>
<polygon fill="none" stroke="black" points="156,-235.8 156,-287.8 326,-287.8 326,-235.8 156,-235.8"/>
</g>
<g id="clust2" class="cluster">
<title>cluster_ProductNewModule_declarations</title>
<polygon fill="none" stroke="black" points="358,-105.8 358,-157.8 526,-157.8 526,-105.8 358,-105.8"/>
</g>
<g id="clust3" class="cluster">
<title>cluster_ProductNewModule_ProductNewComponent_providers</title>
<polygon fill="none" stroke="black" points="238,-40.8 238,-92.8 526,-92.8 526,-40.8 238,-40.8"/>
</g>
<g id="clust4" class="cluster">
<title>cluster_ProductNewModule_imports</title>
<polygon fill="none" stroke="black" points="16,-105.8 16,-157.8 350,-157.8 350,-105.8 16,-105.8"/>
</g>
<!-- ProductNewComponent -->
<g id="node1" class="node">
<title>ProductNewComponent</title>
<polygon fill="#ffffb3" stroke="black" points="517.82,-149.8 366.18,-149.8 366.18,-113.8 517.82,-113.8 517.82,-149.8"/>
<text text-anchor="middle" x="442" y="-127.6" font-family="Times,serif" font-size="14.00">ProductNewComponent</text>
</g>
<!-- ProductNewModule -->
<g id="node2" class="node">
<title>ProductNewModule</title>
<polygon fill="#8dd3c7" stroke="black" points="305.54,-214.8 302.54,-218.8 281.54,-218.8 278.54,-214.8 176.46,-214.8 176.46,-178.8 305.54,-178.8 305.54,-214.8"/>
<text text-anchor="middle" x="241" y="-192.6" font-family="Times,serif" font-size="14.00">ProductNewModule</text>
</g>
<!-- ProductNewComponent&#45;&gt;ProductNewModule -->
<g id="edge1" class="edge">
<title>ProductNewComponent&#45;&gt;ProductNewModule</title>
<path fill="none" stroke="black" d="M442,-149.91C442,-169.14 442,-196.8 442,-196.8 442,-196.8 315.7,-196.8 315.7,-196.8"/>
<polygon fill="black" stroke="black" points="315.7,-193.3 305.7,-196.8 315.7,-200.3 315.7,-193.3"/>
</g>
<!-- ProductNewComponent  -->
<g id="node7" class="node">
<title>ProductNewComponent </title>
<polygon fill="#fb8072" stroke="black" points="318.32,-279.8 163.68,-279.8 163.68,-243.8 318.32,-243.8 318.32,-279.8"/>
<text text-anchor="middle" x="241" y="-257.6" font-family="Times,serif" font-size="14.00">ProductNewComponent </text>
</g>
<!-- ProductNewModule&#45;&gt;ProductNewComponent  -->
<g id="edge6" class="edge">
<title>ProductNewModule&#45;&gt;ProductNewComponent </title>
<path fill="none" stroke="black" stroke-dasharray="5,2" d="M241,-214.91C241,-214.91 241,-233.79 241,-233.79"/>
<polygon fill="black" stroke="black" points="237.5,-233.79 241,-243.79 244.5,-233.79 237.5,-233.79"/>
</g>
<!-- ProductsPresenter -->
<g id="node3" class="node">
<title>ProductsPresenter</title>
<ellipse fill="#fdb462" stroke="black" cx="437" cy="-66.8" rx="80.53" ry="18"/>
<text text-anchor="middle" x="437" y="-62.6" font-family="Times,serif" font-size="14.00">ProductsPresenter</text>
</g>
<!-- ProductsPresenter&#45;&gt;ProductNewComponent -->
<g id="edge2" class="edge">
<title>ProductsPresenter&#45;&gt;ProductNewComponent</title>
<path fill="none" stroke="black" d="M442,-84.91C442,-84.91 442,-103.79 442,-103.79"/>
<polygon fill="black" stroke="black" points="438.5,-103.79 442,-113.79 445.5,-103.79 438.5,-103.79"/>
</g>
<!-- DatePipe -->
<g id="node4" class="node">
<title>DatePipe</title>
<ellipse fill="#fdb462" stroke="black" cx="292" cy="-66.8" rx="46.37" ry="18"/>
<text text-anchor="middle" x="292" y="-62.6" font-family="Times,serif" font-size="14.00">DatePipe</text>
</g>
<!-- DatePipe&#45;&gt;ProductNewComponent -->
<g id="edge3" class="edge">
<title>DatePipe&#45;&gt;ProductNewComponent</title>
<path fill="none" stroke="black" d="M338.61,-66.8C344.82,-66.8 349.08,-66.8 349.08,-66.8 349.08,-66.8 349.08,-131.8 349.08,-131.8 349.08,-131.8 356.13,-131.8 356.13,-131.8"/>
<polygon fill="black" stroke="black" points="356.13,-135.3 366.13,-131.8 356.13,-128.3 356.13,-135.3"/>
</g>
<!-- ProductNewPageRoutingModule -->
<g id="node5" class="node">
<title>ProductNewPageRoutingModule</title>
<polygon fill="#8dd3c7" stroke="black" points="341.87,-149.8 338.87,-153.8 317.87,-153.8 314.87,-149.8 140.13,-149.8 140.13,-113.8 341.87,-113.8 341.87,-149.8"/>
<text text-anchor="middle" x="241" y="-127.6" font-family="Times,serif" font-size="14.00">ProductNewPageRoutingModule</text>
</g>
<!-- ProductNewPageRoutingModule&#45;&gt;ProductNewModule -->
<g id="edge4" class="edge">
<title>ProductNewPageRoutingModule&#45;&gt;ProductNewModule</title>
<path fill="none" stroke="black" d="M241,-149.91C241,-149.91 241,-168.79 241,-168.79"/>
<polygon fill="black" stroke="black" points="237.5,-168.79 241,-178.79 244.5,-168.79 237.5,-168.79"/>
</g>
<!-- SharedModule -->
<g id="node6" class="node">
<title>SharedModule</title>
<polygon fill="#8dd3c7" stroke="black" points="122.43,-149.8 119.43,-153.8 98.43,-153.8 95.43,-149.8 23.57,-149.8 23.57,-113.8 122.43,-113.8 122.43,-149.8"/>
<text text-anchor="middle" x="73" y="-127.6" font-family="Times,serif" font-size="14.00">SharedModule</text>
</g>
<!-- SharedModule&#45;&gt;ProductNewModule -->
<g id="edge5" class="edge">
<title>SharedModule&#45;&gt;ProductNewModule</title>
<path fill="none" stroke="black" d="M73,-149.91C73,-169.14 73,-196.8 73,-196.8 73,-196.8 166.05,-196.8 166.05,-196.8"/>
<polygon fill="black" stroke="black" points="166.05,-200.3 176.05,-196.8 166.05,-193.3 166.05,-200.3"/>
</g>
</g>
</svg>
