<?xml version="1.0" encoding="UTF-8" standalone="no"?>
<!DOCTYPE svg PUBLIC "-//W3C//DTD SVG 1.1//EN"
 "http://www.w3.org/Graphics/SVG/1.1/DTD/svg11.dtd">
<!-- Generated by graphviz version 3.0.0 (20220226.1711)
 -->
<!-- Title: dependencies Pages: 1 -->
<svg width="550pt" height="312pt"
 viewBox="0.00 0.00 550.00 311.80" xmlns="http://www.w3.org/2000/svg" xmlns:xlink="http://www.w3.org/1999/xlink">
<g id="graph0" class="graph" transform="scale(1 1) rotate(0) translate(4 307.8)">
<title>dependencies</title>
<polygon fill="white" stroke="transparent" points="-4,4 -4,-307.8 546,-307.8 546,4 -4,4"/>
<text text-anchor="middle" x="271" y="-8.2" font-family="sans-serif" font-size="14.00">dependencies</text>
<g id="clust1" class="cluster">
<title>cluster_ProductNewModule</title>
<polygon fill="none" stroke="black" stroke-dasharray="1,5" points="8,-32.8 8,-295.8 534,-295.8 534,-32.8 8,-32.8"/>
</g>
<g id="clust4" class="cluster">
<title>cluster_ProductNewModule_imports</title>
<polygon fill="none" stroke="black" points="192,-105.8 192,-157.8 526,-157.8 526,-105.8 192,-105.8"/>
</g>
<g id="clust5" class="cluster">
<title>cluster_ProductNewModule_exports</title>
<polygon fill="none" stroke="black" points="164,-235.8 164,-287.8 334,-287.8 334,-235.8 164,-235.8"/>
</g>
<g id="clust2" class="cluster">
<title>cluster_ProductNewModule_declarations</title>
<polygon fill="none" stroke="black" points="16,-105.8 16,-157.8 184,-157.8 184,-105.8 16,-105.8"/>
</g>
<g id="clust3" class="cluster">
<title>cluster_ProductNewModule_ProductNewComponent_providers</title>
<polygon fill="none" stroke="black" points="31,-40.8 31,-92.8 319,-92.8 319,-40.8 31,-40.8"/>
</g>
<!-- ProductNewComponent -->
<g id="node1" class="node">
<title>ProductNewComponent</title>
<polygon fill="#ffffb3" stroke="black" points="175.82,-149.8 24.18,-149.8 24.18,-113.8 175.82,-113.8 175.82,-149.8"/>
<text text-anchor="middle" x="100" y="-127.6" font-family="Times,serif" font-size="14.00">ProductNewComponent</text>
</g>
<!-- ProductNewModule -->
<g id="node2" class="node">
<title>ProductNewModule</title>
<polygon fill="#8dd3c7" stroke="black" points="313.54,-214.8 310.54,-218.8 289.54,-218.8 286.54,-214.8 184.46,-214.8 184.46,-178.8 313.54,-178.8 313.54,-214.8"/>
<text text-anchor="middle" x="249" y="-192.6" font-family="Times,serif" font-size="14.00">ProductNewModule</text>
</g>
<!-- ProductNewComponent&#45;&gt;ProductNewModule -->
<g id="edge1" class="edge">
<title>ProductNewComponent&#45;&gt;ProductNewModule</title>
<path fill="none" stroke="black" d="M175.98,-131.8C185.52,-131.8 192.01,-131.8 192.01,-131.8 192.01,-131.8 192.01,-168.69 192.01,-168.69"/>
<polygon fill="black" stroke="black" points="188.51,-168.69 192.01,-178.69 195.51,-168.69 188.51,-168.69"/>
</g>
<!-- ProductNewComponent  -->
<g id="node7" class="node">
<title>ProductNewComponent </title>
<polygon fill="#fb8072" stroke="black" points="326.32,-279.8 171.68,-279.8 171.68,-243.8 326.32,-243.8 326.32,-279.8"/>
<text text-anchor="middle" x="249" y="-257.6" font-family="Times,serif" font-size="14.00">ProductNewComponent </text>
</g>
<!-- ProductNewModule&#45;&gt;ProductNewComponent  -->
<g id="edge6" class="edge">
<title>ProductNewModule&#45;&gt;ProductNewComponent </title>
<path fill="none" stroke="black" stroke-dasharray="5,2" d="M249,-214.91C249,-214.91 249,-233.79 249,-233.79"/>
<polygon fill="black" stroke="black" points="245.5,-233.79 249,-243.79 252.5,-233.79 245.5,-233.79"/>
</g>
<!-- ProductsPresenter -->
<g id="node3" class="node">
<title>ProductsPresenter</title>
<ellipse fill="#fdb462" stroke="black" cx="230" cy="-66.8" rx="80.53" ry="18"/>
<text text-anchor="middle" x="230" y="-62.6" font-family="Times,serif" font-size="14.00">ProductsPresenter</text>
</g>
<!-- ProductsPresenter&#45;&gt;ProductNewComponent -->
<g id="edge2" class="edge">
<title>ProductsPresenter&#45;&gt;ProductNewComponent</title>
<path fill="none" stroke="black" d="M162.45,-76.67C162.45,-76.67 162.45,-103.71 162.45,-103.71"/>
<polygon fill="black" stroke="black" points="158.95,-103.71 162.45,-113.71 165.95,-103.71 158.95,-103.71"/>
</g>
<!-- DatePipe -->
<g id="node4" class="node">
<title>DatePipe</title>
<ellipse fill="#fdb462" stroke="black" cx="85" cy="-66.8" rx="46.37" ry="18"/>
<text text-anchor="middle" x="85" y="-62.6" font-family="Times,serif" font-size="14.00">DatePipe</text>
</g>
<!-- DatePipe&#45;&gt;ProductNewComponent -->
<g id="edge3" class="edge">
<title>DatePipe&#45;&gt;ProductNewComponent</title>
<path fill="none" stroke="black" d="M85,-84.91C85,-84.91 85,-103.79 85,-103.79"/>
<polygon fill="black" stroke="black" points="81.5,-103.79 85,-113.79 88.5,-103.79 81.5,-103.79"/>
</g>
<!-- ProductNewPageRoutingModule -->
<g id="node5" class="node">
<title>ProductNewPageRoutingModule</title>
<polygon fill="#8dd3c7" stroke="black" points="517.87,-149.8 514.87,-153.8 493.87,-153.8 490.87,-149.8 316.13,-149.8 316.13,-113.8 517.87,-113.8 517.87,-149.8"/>
<text text-anchor="middle" x="417" y="-127.6" font-family="Times,serif" font-size="14.00">ProductNewPageRoutingModule</text>
</g>
<!-- ProductNewPageRoutingModule&#45;&gt;ProductNewModule -->
<g id="edge4" class="edge">
<title>ProductNewPageRoutingModule&#45;&gt;ProductNewModule</title>
<path fill="none" stroke="black" d="M321.24,-149.91C321.24,-169.14 321.24,-196.8 321.24,-196.8 321.24,-196.8 320.49,-196.8 320.49,-196.8"/>
<polygon fill="black" stroke="black" points="323.78,-193.3 313.78,-196.8 323.78,-200.3 323.78,-193.3"/>
</g>
<!-- SharedModule -->
<g id="node6" class="node">
<title>SharedModule</title>
<polygon fill="#8dd3c7" stroke="black" points="298.43,-149.8 295.43,-153.8 274.43,-153.8 271.43,-149.8 199.57,-149.8 199.57,-113.8 298.43,-113.8 298.43,-149.8"/>
<text text-anchor="middle" x="249" y="-127.6" font-family="Times,serif" font-size="14.00">SharedModule</text>
</g>
<!-- SharedModule&#45;&gt;ProductNewModule -->
<g id="edge5" class="edge">
<title>SharedModule&#45;&gt;ProductNewModule</title>
<path fill="none" stroke="black" d="M249,-149.91C249,-149.91 249,-168.79 249,-168.79"/>
<polygon fill="black" stroke="black" points="245.5,-168.79 249,-178.79 252.5,-168.79 245.5,-168.79"/>
</g>
</g>
</svg>
