<?xml version="1.0" encoding="UTF-8" standalone="no"?>
<!DOCTYPE svg PUBLIC "-//W3C//DTD SVG 1.1//EN"
 "http://www.w3.org/Graphics/SVG/1.1/DTD/svg11.dtd">
<!-- Generated by graphviz version 3.0.0 (20220226.1711)
 -->
<!-- Title: dependencies Pages: 1 -->
<svg width="568pt" height="312pt"
 viewBox="0.00 0.00 568.00 311.80" xmlns="http://www.w3.org/2000/svg" xmlns:xlink="http://www.w3.org/1999/xlink">
<g id="graph0" class="graph" transform="scale(1 1) rotate(0) translate(4 307.8)">
<title>dependencies</title>
<polygon fill="white" stroke="transparent" points="-4,4 -4,-307.8 564,-307.8 564,4 -4,4"/>
<text text-anchor="middle" x="280" y="-8.2" font-family="sans-serif" font-size="14.00">dependencies</text>
<g id="clust1" class="cluster">
<title>cluster_ProductDetailModule</title>
<polygon fill="none" stroke="black" stroke-dasharray="1,5" points="8,-32.8 8,-295.8 552,-295.8 552,-32.8 8,-32.8"/>
</g>
<g id="clust4" class="cluster">
<title>cluster_ProductDetailModule_imports</title>
<polygon fill="none" stroke="black" points="202,-105.8 202,-157.8 544,-157.8 544,-105.8 202,-105.8"/>
</g>
<g id="clust5" class="cluster">
<title>cluster_ProductDetailModule_exports</title>
<polygon fill="none" stroke="black" points="170,-235.8 170,-287.8 348,-287.8 348,-235.8 170,-235.8"/>
</g>
<g id="clust3" class="cluster">
<title>cluster_ProductDetailModule_ProductDetailComponent_providers</title>
<polygon fill="none" stroke="black" points="16,-40.8 16,-157.8 194,-157.8 194,-40.8 16,-40.8"/>
</g>
<!-- ProductDetailComponent -->
<g id="node1" class="node">
<title>ProductDetailComponent</title>
<polygon fill="#ffffb3" stroke="black" points="184.59,-149.8 25.41,-149.8 25.41,-113.8 184.59,-113.8 184.59,-149.8"/>
<text text-anchor="middle" x="105" y="-127.6" font-family="Times,serif" font-size="14.00">ProductDetailComponent</text>
</g>
<!-- ProductDetailModule -->
<g id="node2" class="node">
<title>ProductDetailModule</title>
<polygon fill="#8dd3c7" stroke="black" points="327.81,-214.8 324.81,-218.8 303.81,-218.8 300.81,-214.8 190.19,-214.8 190.19,-178.8 327.81,-178.8 327.81,-214.8"/>
<text text-anchor="middle" x="259" y="-192.6" font-family="Times,serif" font-size="14.00">ProductDetailModule</text>
</g>
<!-- ProductDetailComponent&#45;&gt;ProductDetailModule -->
<g id="edge1" class="edge">
<title>ProductDetailComponent&#45;&gt;ProductDetailModule</title>
<path fill="none" stroke="black" d="M184.79,-131.8C193.94,-131.8 200.07,-131.8 200.07,-131.8 200.07,-131.8 200.07,-168.69 200.07,-168.69"/>
<polygon fill="black" stroke="black" points="196.57,-168.69 200.07,-178.69 203.57,-168.69 196.57,-168.69"/>
</g>
<!-- ProductDetailComponent  -->
<g id="node6" class="node">
<title>ProductDetailComponent </title>
<polygon fill="#fb8072" stroke="black" points="340.09,-279.8 177.91,-279.8 177.91,-243.8 340.09,-243.8 340.09,-279.8"/>
<text text-anchor="middle" x="259" y="-257.6" font-family="Times,serif" font-size="14.00">ProductDetailComponent </text>
</g>
<!-- ProductDetailModule&#45;&gt;ProductDetailComponent  -->
<g id="edge5" class="edge">
<title>ProductDetailModule&#45;&gt;ProductDetailComponent </title>
<path fill="none" stroke="black" stroke-dasharray="5,2" d="M259,-214.91C259,-214.91 259,-233.79 259,-233.79"/>
<polygon fill="black" stroke="black" points="255.5,-233.79 259,-243.79 262.5,-233.79 255.5,-233.79"/>
</g>
<!-- ProductsPresenter -->
<g id="node3" class="node">
<title>ProductsPresenter</title>
<ellipse fill="#fdb462" stroke="black" cx="105" cy="-66.8" rx="80.53" ry="18"/>
<text text-anchor="middle" x="105" y="-62.6" font-family="Times,serif" font-size="14.00">ProductsPresenter</text>
</g>
<!-- ProductsPresenter&#45;&gt;ProductDetailComponent -->
<g id="edge2" class="edge">
<title>ProductsPresenter&#45;&gt;ProductDetailComponent</title>
<path fill="none" stroke="black" d="M105,-84.91C105,-84.91 105,-103.79 105,-103.79"/>
<polygon fill="black" stroke="black" points="101.5,-103.79 105,-113.79 108.5,-103.79 101.5,-103.79"/>
</g>
<!-- ProductDetailPageRoutingModule -->
<g id="node4" class="node">
<title>ProductDetailPageRoutingModule</title>
<polygon fill="#8dd3c7" stroke="black" points="535.64,-149.8 532.64,-153.8 511.64,-153.8 508.64,-149.8 326.36,-149.8 326.36,-113.8 535.64,-113.8 535.64,-149.8"/>
<text text-anchor="middle" x="431" y="-127.6" font-family="Times,serif" font-size="14.00">ProductDetailPageRoutingModule</text>
</g>
<!-- ProductDetailPageRoutingModule&#45;&gt;ProductDetailModule -->
<g id="edge3" class="edge">
<title>ProductDetailPageRoutingModule&#45;&gt;ProductDetailModule</title>
<path fill="none" stroke="black" d="M333.98,-149.91C333.98,-169.14 333.98,-196.8 333.98,-196.8 333.98,-196.8 333.36,-196.8 333.36,-196.8"/>
<polygon fill="black" stroke="black" points="337.84,-193.3 327.84,-196.8 337.84,-200.3 337.84,-193.3"/>
</g>
<!-- SharedModule -->
<g id="node5" class="node">
<title>SharedModule</title>
<polygon fill="#8dd3c7" stroke="black" points="308.43,-149.8 305.43,-153.8 284.43,-153.8 281.43,-149.8 209.57,-149.8 209.57,-113.8 308.43,-113.8 308.43,-149.8"/>
<text text-anchor="middle" x="259" y="-127.6" font-family="Times,serif" font-size="14.00">SharedModule</text>
</g>
<!-- SharedModule&#45;&gt;ProductDetailModule -->
<g id="edge4" class="edge">
<title>SharedModule&#45;&gt;ProductDetailModule</title>
<path fill="none" stroke="black" d="M259,-149.91C259,-149.91 259,-168.79 259,-168.79"/>
<polygon fill="black" stroke="black" points="255.5,-168.79 259,-178.79 262.5,-168.79 255.5,-168.79"/>
</g>
</g>
</svg>
