<?xml version="1.0" encoding="UTF-8" standalone="no"?>
<!DOCTYPE svg PUBLIC "-//W3C//DTD SVG 1.1//EN"
 "http://www.w3.org/Graphics/SVG/1.1/DTD/svg11.dtd">
<!-- Generated by graphviz version 3.0.0 (20220226.1711)
 -->
<!-- Title: dependencies Pages: 1 -->
<svg width="568pt" height="312pt"
 viewBox="0.00 0.00 568.00 311.80" xmlns="http://www.w3.org/2000/svg" xmlns:xlink="http://www.w3.org/1999/xlink">
<g id="graph0" class="graph" transform="scale(1 1) rotate(0) translate(4 307.8)">
<title>dependencies</title>
<polygon fill="white" stroke="transparent" points="-4,4 -4,-307.8 564,-307.8 564,4 -4,4"/>
<text text-anchor="middle" x="280" y="-8.2" font-family="sans-serif" font-size="14.00">dependencies</text>
<g id="clust1" class="cluster">
<title>cluster_ProductDetailModule</title>
<polygon fill="none" stroke="black" stroke-dasharray="1,5" points="8,-32.8 8,-295.8 552,-295.8 552,-32.8 8,-32.8"/>
</g>
<g id="clust3" class="cluster">
<title>cluster_ProductDetailModule_ProductDetailComponent_providers</title>
<polygon fill="none" stroke="black" points="366,-40.8 366,-157.8 544,-157.8 544,-40.8 366,-40.8"/>
</g>
<g id="clust5" class="cluster">
<title>cluster_ProductDetailModule_exports</title>
<polygon fill="none" stroke="black" points="156,-235.8 156,-287.8 334,-287.8 334,-235.8 156,-235.8"/>
</g>
<g id="clust4" class="cluster">
<title>cluster_ProductDetailModule_imports</title>
<polygon fill="none" stroke="black" points="16,-105.8 16,-157.8 358,-157.8 358,-105.8 16,-105.8"/>
</g>
<!-- ProductDetailComponent -->
<g id="node1" class="node">
<title>ProductDetailComponent</title>
<polygon fill="#ffffb3" stroke="black" points="533.59,-149.8 374.41,-149.8 374.41,-113.8 533.59,-113.8 533.59,-149.8"/>
<text text-anchor="middle" x="454" y="-127.6" font-family="Times,serif" font-size="14.00">ProductDetailComponent</text>
</g>
<!-- ProductDetailModule -->
<g id="node2" class="node">
<title>ProductDetailModule</title>
<polygon fill="#8dd3c7" stroke="black" points="313.81,-214.8 310.81,-218.8 289.81,-218.8 286.81,-214.8 176.19,-214.8 176.19,-178.8 313.81,-178.8 313.81,-214.8"/>
<text text-anchor="middle" x="245" y="-192.6" font-family="Times,serif" font-size="14.00">ProductDetailModule</text>
</g>
<!-- ProductDetailComponent&#45;&gt;ProductDetailModule -->
<g id="edge1" class="edge">
<title>ProductDetailComponent&#45;&gt;ProductDetailModule</title>
<path fill="none" stroke="black" d="M454,-149.91C454,-169.14 454,-196.8 454,-196.8 454,-196.8 323.72,-196.8 323.72,-196.8"/>
<polygon fill="black" stroke="black" points="323.72,-193.3 313.72,-196.8 323.72,-200.3 323.72,-193.3"/>
</g>
<!-- ProductDetailComponent  -->
<g id="node6" class="node">
<title>ProductDetailComponent </title>
<polygon fill="#fb8072" stroke="black" points="326.09,-279.8 163.91,-279.8 163.91,-243.8 326.09,-243.8 326.09,-279.8"/>
<text text-anchor="middle" x="245" y="-257.6" font-family="Times,serif" font-size="14.00">ProductDetailComponent </text>
</g>
<!-- ProductDetailModule&#45;&gt;ProductDetailComponent  -->
<g id="edge5" class="edge">
<title>ProductDetailModule&#45;&gt;ProductDetailComponent </title>
<path fill="none" stroke="black" stroke-dasharray="5,2" d="M245,-214.91C245,-214.91 245,-233.79 245,-233.79"/>
<polygon fill="black" stroke="black" points="241.5,-233.79 245,-243.79 248.5,-233.79 241.5,-233.79"/>
</g>
<!-- ProductsPresenter -->
<g id="node3" class="node">
<title>ProductsPresenter</title>
<ellipse fill="#fdb462" stroke="black" cx="455" cy="-66.8" rx="80.53" ry="18"/>
<text text-anchor="middle" x="455" y="-62.6" font-family="Times,serif" font-size="14.00">ProductsPresenter</text>
</g>
<!-- ProductsPresenter&#45;&gt;ProductDetailComponent -->
<g id="edge2" class="edge">
<title>ProductsPresenter&#45;&gt;ProductDetailComponent</title>
<path fill="none" stroke="black" d="M454,-84.91C454,-84.91 454,-103.79 454,-103.79"/>
<polygon fill="black" stroke="black" points="450.5,-103.79 454,-113.79 457.5,-103.79 450.5,-103.79"/>
</g>
<!-- ProductDetailPageRoutingModule -->
<g id="node4" class="node">
<title>ProductDetailPageRoutingModule</title>
<polygon fill="#8dd3c7" stroke="black" points="349.64,-149.8 346.64,-153.8 325.64,-153.8 322.64,-149.8 140.36,-149.8 140.36,-113.8 349.64,-113.8 349.64,-149.8"/>
<text text-anchor="middle" x="245" y="-127.6" font-family="Times,serif" font-size="14.00">ProductDetailPageRoutingModule</text>
</g>
<!-- ProductDetailPageRoutingModule&#45;&gt;ProductDetailModule -->
<g id="edge3" class="edge">
<title>ProductDetailPageRoutingModule&#45;&gt;ProductDetailModule</title>
<path fill="none" stroke="black" d="M245,-149.91C245,-149.91 245,-168.79 245,-168.79"/>
<polygon fill="black" stroke="black" points="241.5,-168.79 245,-178.79 248.5,-168.79 241.5,-168.79"/>
</g>
<!-- SharedModule -->
<g id="node5" class="node">
<title>SharedModule</title>
<polygon fill="#8dd3c7" stroke="black" points="122.43,-149.8 119.43,-153.8 98.43,-153.8 95.43,-149.8 23.57,-149.8 23.57,-113.8 122.43,-113.8 122.43,-149.8"/>
<text text-anchor="middle" x="73" y="-127.6" font-family="Times,serif" font-size="14.00">SharedModule</text>
</g>
<!-- SharedModule&#45;&gt;ProductDetailModule -->
<g id="edge4" class="edge">
<title>SharedModule&#45;&gt;ProductDetailModule</title>
<path fill="none" stroke="black" d="M73,-149.91C73,-169.14 73,-196.8 73,-196.8 73,-196.8 166.03,-196.8 166.03,-196.8"/>
<polygon fill="black" stroke="black" points="166.03,-200.3 176.03,-196.8 166.03,-193.3 166.03,-200.3"/>
</g>
</g>
</svg>
