<?xml version="1.0" encoding="UTF-8" standalone="no"?>
<!DOCTYPE svg PUBLIC "-//W3C//DTD SVG 1.1//EN"
 "http://www.w3.org/Graphics/SVG/1.1/DTD/svg11.dtd">
<!-- Generated by graphviz version 3.0.0 (20220226.1711)
 -->
<!-- Title: dependencies Pages: 1 -->
<svg width="476pt" height="312pt"
 viewBox="0.00 0.00 476.00 311.80" xmlns="http://www.w3.org/2000/svg" xmlns:xlink="http://www.w3.org/1999/xlink">
<g id="graph0" class="graph" transform="scale(1 1) rotate(0) translate(4 307.8)">
<title>dependencies</title>
<polygon fill="white" stroke="transparent" points="-4,4 -4,-307.8 472,-307.8 472,4 -4,4"/>
<text text-anchor="middle" x="234" y="-8.2" font-family="sans-serif" font-size="14.00">dependencies</text>
<g id="clust1" class="cluster">
<title>cluster_LoginModule</title>
<polygon fill="none" stroke="black" stroke-dasharray="1,5" points="8,-32.8 8,-295.8 460,-295.8 460,-32.8 8,-32.8"/>
</g>
<g id="clust5" class="cluster">
<title>cluster_LoginModule_exports</title>
<polygon fill="none" stroke="black" points="156,-235.8 156,-287.8 290,-287.8 290,-235.8 156,-235.8"/>
</g>
<g id="clust2" class="cluster">
<title>cluster_LoginModule_declarations</title>
<polygon fill="none" stroke="black" points="322,-105.8 322,-157.8 452,-157.8 452,-105.8 322,-105.8"/>
</g>
<g id="clust3" class="cluster">
<title>cluster_LoginModule_LoginComponent_providers</title>
<polygon fill="none" stroke="black" points="316,-40.8 316,-92.8 452,-92.8 452,-40.8 316,-40.8"/>
</g>
<g id="clust4" class="cluster">
<title>cluster_LoginModule_imports</title>
<polygon fill="none" stroke="black" points="16,-105.8 16,-157.8 314,-157.8 314,-105.8 16,-105.8"/>
</g>
<!-- LoginComponent -->
<g id="node1" class="node">
<title>LoginComponent</title>
<polygon fill="#ffffb3" stroke="black" points="444.27,-149.8 329.73,-149.8 329.73,-113.8 444.27,-113.8 444.27,-149.8"/>
<text text-anchor="middle" x="387" y="-127.6" font-family="Times,serif" font-size="14.00">LoginComponent</text>
</g>
<!-- LoginModule -->
<g id="node2" class="node">
<title>LoginModule</title>
<polygon fill="#8dd3c7" stroke="black" points="269.49,-214.8 266.49,-218.8 245.49,-218.8 242.49,-214.8 176.51,-214.8 176.51,-178.8 269.49,-178.8 269.49,-214.8"/>
<text text-anchor="middle" x="223" y="-192.6" font-family="Times,serif" font-size="14.00">LoginModule</text>
</g>
<!-- LoginComponent&#45;&gt;LoginModule -->
<g id="edge1" class="edge">
<title>LoginComponent&#45;&gt;LoginModule</title>
<path fill="none" stroke="black" d="M387,-149.91C387,-169.14 387,-196.8 387,-196.8 387,-196.8 279.56,-196.8 279.56,-196.8"/>
<polygon fill="black" stroke="black" points="279.56,-193.3 269.56,-196.8 279.56,-200.3 279.56,-193.3"/>
</g>
<!-- LoginComponent  -->
<g id="node6" class="node">
<title>LoginComponent </title>
<polygon fill="#fb8072" stroke="black" points="282.27,-279.8 163.73,-279.8 163.73,-243.8 282.27,-243.8 282.27,-279.8"/>
<text text-anchor="middle" x="223" y="-257.6" font-family="Times,serif" font-size="14.00">LoginComponent </text>
</g>
<!-- LoginModule&#45;&gt;LoginComponent  -->
<g id="edge5" class="edge">
<title>LoginModule&#45;&gt;LoginComponent </title>
<path fill="none" stroke="black" stroke-dasharray="5,2" d="M223,-214.91C223,-214.91 223,-233.79 223,-233.79"/>
<polygon fill="black" stroke="black" points="219.5,-233.79 223,-243.79 226.5,-233.79 219.5,-233.79"/>
</g>
<!-- InitPresenter -->
<g id="node3" class="node">
<title>InitPresenter</title>
<ellipse fill="#fdb462" stroke="black" cx="384" cy="-66.8" rx="60.26" ry="18"/>
<text text-anchor="middle" x="384" y="-62.6" font-family="Times,serif" font-size="14.00">InitPresenter</text>
</g>
<!-- InitPresenter&#45;&gt;LoginComponent -->
<g id="edge2" class="edge">
<title>InitPresenter&#45;&gt;LoginComponent</title>
<path fill="none" stroke="black" d="M387,-84.91C387,-84.91 387,-103.79 387,-103.79"/>
<polygon fill="black" stroke="black" points="383.5,-103.79 387,-113.79 390.5,-103.79 383.5,-103.79"/>
</g>
<!-- LoginPageRoutingModule -->
<g id="node4" class="node">
<title>LoginPageRoutingModule</title>
<polygon fill="#8dd3c7" stroke="black" points="305.82,-149.8 302.82,-153.8 281.82,-153.8 278.82,-149.8 140.18,-149.8 140.18,-113.8 305.82,-113.8 305.82,-149.8"/>
<text text-anchor="middle" x="223" y="-127.6" font-family="Times,serif" font-size="14.00">LoginPageRoutingModule</text>
</g>
<!-- LoginPageRoutingModule&#45;&gt;LoginModule -->
<g id="edge3" class="edge">
<title>LoginPageRoutingModule&#45;&gt;LoginModule</title>
<path fill="none" stroke="black" d="M223,-149.91C223,-149.91 223,-168.79 223,-168.79"/>
<polygon fill="black" stroke="black" points="219.5,-168.79 223,-178.79 226.5,-168.79 219.5,-168.79"/>
</g>
<!-- SharedModule -->
<g id="node5" class="node">
<title>SharedModule</title>
<polygon fill="#8dd3c7" stroke="black" points="122.43,-149.8 119.43,-153.8 98.43,-153.8 95.43,-149.8 23.57,-149.8 23.57,-113.8 122.43,-113.8 122.43,-149.8"/>
<text text-anchor="middle" x="73" y="-127.6" font-family="Times,serif" font-size="14.00">SharedModule</text>
</g>
<!-- SharedModule&#45;&gt;LoginModule -->
<g id="edge4" class="edge">
<title>SharedModule&#45;&gt;LoginModule</title>
<path fill="none" stroke="black" d="M73,-149.91C73,-169.14 73,-196.8 73,-196.8 73,-196.8 166.36,-196.8 166.36,-196.8"/>
<polygon fill="black" stroke="black" points="166.36,-200.3 176.36,-196.8 166.36,-193.3 166.36,-200.3"/>
</g>
</g>
</svg>
