<?xml version="1.0" encoding="UTF-8" standalone="no"?>
<!DOCTYPE svg PUBLIC "-//W3C//DTD SVG 1.1//EN"
 "http://www.w3.org/Graphics/SVG/1.1/DTD/svg11.dtd">
<!-- Generated by graphviz version 3.0.0 (20220226.1711)
 -->
<!-- Title: dependencies Pages: 1 -->
<svg width="539pt" height="312pt"
 viewBox="0.00 0.00 539.00 311.80" xmlns="http://www.w3.org/2000/svg" xmlns:xlink="http://www.w3.org/1999/xlink">
<g id="graph0" class="graph" transform="scale(1 1) rotate(0) translate(4 307.8)">
<title>dependencies</title>
<polygon fill="white" stroke="transparent" points="-4,4 -4,-307.8 535,-307.8 535,4 -4,4"/>
<text text-anchor="middle" x="265.5" y="-8.2" font-family="sans-serif" font-size="14.00">dependencies</text>
<g id="clust1" class="cluster">
<title>cluster_ProductsModule</title>
<polygon fill="none" stroke="black" stroke-dasharray="1,5" points="8,-32.8 8,-295.8 523,-295.8 523,-32.8 8,-32.8"/>
</g>
<g id="clust3" class="cluster">
<title>cluster_ProductsModule_ProductsComponent_providers</title>
<polygon fill="none" stroke="black" points="337,-40.8 337,-157.8 515,-157.8 515,-40.8 337,-40.8"/>
</g>
<g id="clust4" class="cluster">
<title>cluster_ProductsModule_imports</title>
<polygon fill="none" stroke="black" points="16,-105.8 16,-157.8 329,-157.8 329,-105.8 16,-105.8"/>
</g>
<g id="clust5" class="cluster">
<title>cluster_ProductsModule_exports</title>
<polygon fill="none" stroke="black" points="156,-235.8 156,-287.8 306,-287.8 306,-235.8 156,-235.8"/>
</g>
<!-- ProductsComponent -->
<g id="node1" class="node">
<title>ProductsComponent</title>
<polygon fill="#ffffb3" stroke="black" points="483.33,-149.8 352.67,-149.8 352.67,-113.8 483.33,-113.8 483.33,-149.8"/>
<text text-anchor="middle" x="418" y="-127.6" font-family="Times,serif" font-size="14.00">ProductsComponent</text>
</g>
<!-- ProductsModule -->
<g id="node2" class="node">
<title>ProductsModule</title>
<polygon fill="#8dd3c7" stroke="black" points="285.05,-214.8 282.05,-218.8 261.05,-218.8 258.05,-214.8 176.95,-214.8 176.95,-178.8 285.05,-178.8 285.05,-214.8"/>
<text text-anchor="middle" x="231" y="-192.6" font-family="Times,serif" font-size="14.00">ProductsModule</text>
</g>
<!-- ProductsComponent&#45;&gt;ProductsModule -->
<g id="edge1" class="edge">
<title>ProductsComponent&#45;&gt;ProductsModule</title>
<path fill="none" stroke="black" d="M418,-149.91C418,-169.14 418,-196.8 418,-196.8 418,-196.8 295.09,-196.8 295.09,-196.8"/>
<polygon fill="black" stroke="black" points="295.09,-193.3 285.09,-196.8 295.09,-200.3 295.09,-193.3"/>
</g>
<!-- ProductsComponent  -->
<g id="node6" class="node">
<title>ProductsComponent </title>
<polygon fill="#fb8072" stroke="black" points="297.83,-279.8 164.17,-279.8 164.17,-243.8 297.83,-243.8 297.83,-279.8"/>
<text text-anchor="middle" x="231" y="-257.6" font-family="Times,serif" font-size="14.00">ProductsComponent </text>
</g>
<!-- ProductsModule&#45;&gt;ProductsComponent  -->
<g id="edge5" class="edge">
<title>ProductsModule&#45;&gt;ProductsComponent </title>
<path fill="none" stroke="black" stroke-dasharray="5,2" d="M231,-214.91C231,-214.91 231,-233.79 231,-233.79"/>
<polygon fill="black" stroke="black" points="227.5,-233.79 231,-243.79 234.5,-233.79 227.5,-233.79"/>
</g>
<!-- ProductsPresenter -->
<g id="node3" class="node">
<title>ProductsPresenter</title>
<ellipse fill="#fdb462" stroke="black" cx="426" cy="-66.8" rx="80.53" ry="18"/>
<text text-anchor="middle" x="426" y="-62.6" font-family="Times,serif" font-size="14.00">ProductsPresenter</text>
</g>
<!-- ProductsPresenter&#45;&gt;ProductsComponent -->
<g id="edge2" class="edge">
<title>ProductsPresenter&#45;&gt;ProductsComponent</title>
<path fill="none" stroke="black" d="M418,-84.91C418,-84.91 418,-103.79 418,-103.79"/>
<polygon fill="black" stroke="black" points="414.5,-103.79 418,-113.79 421.5,-103.79 414.5,-103.79"/>
</g>
<!-- ProductsPageRoutingModule -->
<g id="node4" class="node">
<title>ProductsPageRoutingModule</title>
<polygon fill="#8dd3c7" stroke="black" points="321.38,-149.8 318.38,-153.8 297.38,-153.8 294.38,-149.8 140.62,-149.8 140.62,-113.8 321.38,-113.8 321.38,-149.8"/>
<text text-anchor="middle" x="231" y="-127.6" font-family="Times,serif" font-size="14.00">ProductsPageRoutingModule</text>
</g>
<!-- ProductsPageRoutingModule&#45;&gt;ProductsModule -->
<g id="edge3" class="edge">
<title>ProductsPageRoutingModule&#45;&gt;ProductsModule</title>
<path fill="none" stroke="black" d="M231,-149.91C231,-149.91 231,-168.79 231,-168.79"/>
<polygon fill="black" stroke="black" points="227.5,-168.79 231,-178.79 234.5,-168.79 227.5,-168.79"/>
</g>
<!-- SharedModule -->
<g id="node5" class="node">
<title>SharedModule</title>
<polygon fill="#8dd3c7" stroke="black" points="122.43,-149.8 119.43,-153.8 98.43,-153.8 95.43,-149.8 23.57,-149.8 23.57,-113.8 122.43,-113.8 122.43,-149.8"/>
<text text-anchor="middle" x="73" y="-127.6" font-family="Times,serif" font-size="14.00">SharedModule</text>
</g>
<!-- SharedModule&#45;&gt;ProductsModule -->
<g id="edge4" class="edge">
<title>SharedModule&#45;&gt;ProductsModule</title>
<path fill="none" stroke="black" d="M73,-149.91C73,-169.14 73,-196.8 73,-196.8 73,-196.8 166.63,-196.8 166.63,-196.8"/>
<polygon fill="black" stroke="black" points="166.63,-200.3 176.63,-196.8 166.63,-193.3 166.63,-200.3"/>
</g>
</g>
</svg>
