<?xml version="1.0" encoding="UTF-8" standalone="no"?>
<!DOCTYPE svg PUBLIC "-//W3C//DTD SVG 1.1//EN"
 "http://www.w3.org/Graphics/SVG/1.1/DTD/svg11.dtd">
<!-- Generated by graphviz version 3.0.0 (20220226.1711)
 -->
<!-- Title: dependencies Pages: 1 -->
<svg width="740pt" height="247pt"
 viewBox="0.00 0.00 740.00 246.80" xmlns="http://www.w3.org/2000/svg" xmlns:xlink="http://www.w3.org/1999/xlink">
<g id="graph0" class="graph" transform="scale(1 1) rotate(0) translate(4 242.8)">
<title>dependencies</title>
<polygon fill="white" stroke="transparent" points="-4,4 -4,-242.8 736,-242.8 736,4 -4,4"/>
<text text-anchor="middle" x="366" y="-8.2" font-family="sans-serif" font-size="14.00">dependencies</text>
<g id="clust1" class="cluster">
<title>cluster_AppModule</title>
<polygon fill="none" stroke="black" stroke-dasharray="1,5" points="8,-32.8 8,-230.8 724,-230.8 724,-32.8 8,-32.8"/>
</g>
<g id="clust2" class="cluster">
<title>cluster_AppModule_declarations</title>
<polygon fill="none" stroke="black" points="411,-40.8 411,-92.8 716,-92.8 716,-40.8 411,-40.8"/>
</g>
<g id="clust5" class="cluster">
<title>cluster_AppModule_imports</title>
<polygon fill="none" stroke="black" points="16,-40.8 16,-92.8 403,-92.8 403,-40.8 16,-40.8"/>
</g>
<g id="clust7" class="cluster">
<title>cluster_AppModule_bootstrap</title>
<polygon fill="none" stroke="black" points="269,-170.8 269,-222.8 393,-222.8 393,-170.8 269,-170.8"/>
</g>
<!-- AppComponent -->
<g id="node1" class="node">
<title>AppComponent</title>
<polygon fill="#ffffb3" stroke="black" points="707.94,-84.8 602.06,-84.8 602.06,-48.8 707.94,-48.8 707.94,-84.8"/>
<text text-anchor="middle" x="655" y="-62.6" font-family="Times,serif" font-size="14.00">AppComponent</text>
</g>
<!-- AppModule -->
<g id="node3" class="node">
<title>AppModule</title>
<polygon fill="#8dd3c7" stroke="black" points="372.66,-149.8 369.66,-153.8 348.66,-153.8 345.66,-149.8 289.34,-149.8 289.34,-113.8 372.66,-113.8 372.66,-149.8"/>
<text text-anchor="middle" x="331" y="-127.6" font-family="Times,serif" font-size="14.00">AppModule</text>
</g>
<!-- AppComponent&#45;&gt;AppModule -->
<g id="edge1" class="edge">
<title>AppComponent&#45;&gt;AppModule</title>
<path fill="none" stroke="black" d="M655,-85.08C655,-106.12 655,-137.8 655,-137.8 655,-137.8 382.69,-137.8 382.69,-137.8"/>
<polygon fill="black" stroke="black" points="382.69,-134.3 372.69,-137.8 382.69,-141.3 382.69,-134.3"/>
</g>
<!-- PageNotFoundComponent -->
<g id="node2" class="node">
<title>PageNotFoundComponent</title>
<polygon fill="#ffffb3" stroke="black" points="584.83,-84.8 419.17,-84.8 419.17,-48.8 584.83,-48.8 584.83,-84.8"/>
<text text-anchor="middle" x="502" y="-62.6" font-family="Times,serif" font-size="14.00">PageNotFoundComponent</text>
</g>
<!-- PageNotFoundComponent&#45;&gt;AppModule -->
<g id="edge2" class="edge">
<title>PageNotFoundComponent&#45;&gt;AppModule</title>
<path fill="none" stroke="black" d="M502,-84.82C502,-102.17 502,-125.8 502,-125.8 502,-125.8 382.83,-125.8 382.83,-125.8"/>
<polygon fill="black" stroke="black" points="382.83,-122.3 372.83,-125.8 382.83,-129.3 382.83,-122.3"/>
</g>
<!-- AppComponent  -->
<g id="node7" class="node">
<title>AppComponent </title>
<polygon fill="#80b1d3" stroke="black" points="385.44,-214.8 276.56,-214.8 276.56,-178.8 385.44,-178.8 385.44,-214.8"/>
<text text-anchor="middle" x="331" y="-192.6" font-family="Times,serif" font-size="14.00">AppComponent </text>
</g>
<!-- AppModule&#45;&gt;AppComponent  -->
<g id="edge6" class="edge">
<title>AppModule&#45;&gt;AppComponent </title>
<path fill="none" stroke="black" stroke-dasharray="1,5" d="M331,-149.91C331,-149.91 331,-168.79 331,-168.79"/>
<polygon fill="black" stroke="black" points="327.5,-168.79 331,-178.79 334.5,-168.79 327.5,-168.79"/>
</g>
<!-- AppRootingModule -->
<g id="node4" class="node">
<title>AppRootingModule</title>
<polygon fill="#8dd3c7" stroke="black" points="395.28,-84.8 392.28,-88.8 371.28,-88.8 368.28,-84.8 266.72,-84.8 266.72,-48.8 395.28,-48.8 395.28,-84.8"/>
<text text-anchor="middle" x="331" y="-62.6" font-family="Times,serif" font-size="14.00">AppRootingModule</text>
</g>
<!-- AppRootingModule&#45;&gt;AppModule -->
<g id="edge3" class="edge">
<title>AppRootingModule&#45;&gt;AppModule</title>
<path fill="none" stroke="black" d="M331,-84.91C331,-84.91 331,-103.79 331,-103.79"/>
<polygon fill="black" stroke="black" points="327.5,-103.79 331,-113.79 334.5,-103.79 327.5,-103.79"/>
</g>
<!-- LoginModule -->
<g id="node5" class="node">
<title>LoginModule</title>
<polygon fill="#8dd3c7" stroke="black" points="248.49,-84.8 245.49,-88.8 224.49,-88.8 221.49,-84.8 155.51,-84.8 155.51,-48.8 248.49,-48.8 248.49,-84.8"/>
<text text-anchor="middle" x="202" y="-62.6" font-family="Times,serif" font-size="14.00">LoginModule</text>
</g>
<!-- LoginModule&#45;&gt;AppModule -->
<g id="edge4" class="edge">
<title>LoginModule&#45;&gt;AppModule</title>
<path fill="none" stroke="black" d="M202,-84.82C202,-102.17 202,-125.8 202,-125.8 202,-125.8 279.12,-125.8 279.12,-125.8"/>
<polygon fill="black" stroke="black" points="279.12,-129.3 289.12,-125.8 279.12,-122.3 279.12,-129.3"/>
</g>
<!-- eshopApiModule -->
<g id="node6" class="node">
<title>eshopApiModule</title>
<polygon fill="#8dd3c7" stroke="black" points="137.71,-84.8 134.71,-88.8 113.71,-88.8 110.71,-84.8 24.29,-84.8 24.29,-48.8 137.71,-48.8 137.71,-84.8"/>
<text text-anchor="middle" x="81" y="-62.6" font-family="Times,serif" font-size="14.00">eshopApiModule</text>
</g>
<!-- eshopApiModule&#45;&gt;AppModule -->
<g id="edge5" class="edge">
<title>eshopApiModule&#45;&gt;AppModule</title>
<path fill="none" stroke="black" d="M81,-85.08C81,-106.12 81,-137.8 81,-137.8 81,-137.8 279.16,-137.8 279.16,-137.8"/>
<polygon fill="black" stroke="black" points="279.16,-141.3 289.16,-137.8 279.16,-134.3 279.16,-141.3"/>
</g>
</g>
</svg>
