<?xml version="1.0" encoding="UTF-8" standalone="no"?>
<!DOCTYPE svg PUBLIC "-//W3C//DTD SVG 1.1//EN"
 "http://www.w3.org/Graphics/SVG/1.1/DTD/svg11.dtd">
<!-- Generated by graphviz version 3.0.0 (20220226.1711)
 -->
<!-- Title: dependencies Pages: 1 -->
<svg width="1114pt" height="247pt"
 viewBox="0.00 0.00 1114.00 246.80" xmlns="http://www.w3.org/2000/svg" xmlns:xlink="http://www.w3.org/1999/xlink">
<g id="graph0" class="graph" transform="scale(1 1) rotate(0) translate(4 242.8)">
<title>dependencies</title>
<polygon fill="white" stroke="transparent" points="-4,4 -4,-242.8 1110,-242.8 1110,4 -4,4"/>
<text text-anchor="middle" x="553" y="-8.2" font-family="sans-serif" font-size="14.00">dependencies</text>
<g id="clust1" class="cluster">
<title>cluster_AppModule</title>
<polygon fill="none" stroke="black" stroke-dasharray="1,5" points="8,-32.8 8,-230.8 1098,-230.8 1098,-32.8 8,-32.8"/>
</g>
<g id="clust2" class="cluster">
<title>cluster_AppModule_declarations</title>
<polygon fill="none" stroke="black" points="785,-40.8 785,-92.8 1090,-92.8 1090,-40.8 785,-40.8"/>
</g>
<g id="clust5" class="cluster">
<title>cluster_AppModule_imports</title>
<polygon fill="none" stroke="black" points="16,-40.8 16,-92.8 777,-92.8 777,-40.8 16,-40.8"/>
</g>
<g id="clust7" class="cluster">
<title>cluster_AppModule_bootstrap</title>
<polygon fill="none" stroke="black" points="523,-170.8 523,-222.8 647,-222.8 647,-170.8 523,-170.8"/>
</g>
<!-- AppComponent -->
<g id="node1" class="node">
<title>AppComponent</title>
<polygon fill="#ffffb3" stroke="black" points="1081.94,-84.8 976.06,-84.8 976.06,-48.8 1081.94,-48.8 1081.94,-84.8"/>
<text text-anchor="middle" x="1029" y="-62.6" font-family="Times,serif" font-size="14.00">AppComponent</text>
</g>
<!-- AppModule -->
<g id="node3" class="node">
<title>AppModule</title>
<polygon fill="#8dd3c7" stroke="black" points="626.66,-149.8 623.66,-153.8 602.66,-153.8 599.66,-149.8 543.34,-149.8 543.34,-113.8 626.66,-113.8 626.66,-149.8"/>
<text text-anchor="middle" x="585" y="-127.6" font-family="Times,serif" font-size="14.00">AppModule</text>
</g>
<!-- AppComponent&#45;&gt;AppModule -->
<g id="edge1" class="edge">
<title>AppComponent&#45;&gt;AppModule</title>
<path fill="none" stroke="black" d="M1029,-85.09C1029,-107.01 1029,-140.8 1029,-140.8 1029,-140.8 636.77,-140.8 636.77,-140.8"/>
<polygon fill="black" stroke="black" points="636.77,-137.3 626.77,-140.8 636.77,-144.3 636.77,-137.3"/>
</g>
<!-- PageNotFoundComponent -->
<g id="node2" class="node">
<title>PageNotFoundComponent</title>
<polygon fill="#ffffb3" stroke="black" points="958.83,-84.8 793.17,-84.8 793.17,-48.8 958.83,-48.8 958.83,-84.8"/>
<text text-anchor="middle" x="876" y="-62.6" font-family="Times,serif" font-size="14.00">PageNotFoundComponent</text>
</g>
<!-- PageNotFoundComponent&#45;&gt;AppModule -->
<g id="edge2" class="edge">
<title>PageNotFoundComponent&#45;&gt;AppModule</title>
<path fill="none" stroke="black" d="M876,-84.91C876,-104.14 876,-131.8 876,-131.8 876,-131.8 636.69,-131.8 636.69,-131.8"/>
<polygon fill="black" stroke="black" points="636.69,-128.3 626.69,-131.8 636.69,-135.3 636.69,-128.3"/>
</g>
<!-- AppComponent  -->
<g id="node10" class="node">
<title>AppComponent </title>
<polygon fill="#80b1d3" stroke="black" points="639.44,-214.8 530.56,-214.8 530.56,-178.8 639.44,-178.8 639.44,-214.8"/>
<text text-anchor="middle" x="585" y="-192.6" font-family="Times,serif" font-size="14.00">AppComponent </text>
</g>
<!-- AppModule&#45;&gt;AppComponent  -->
<g id="edge10" class="edge">
<title>AppModule&#45;&gt;AppComponent </title>
<path fill="none" stroke="black" stroke-dasharray="1,5" d="M585,-149.91C585,-149.91 585,-168.79 585,-168.79"/>
<polygon fill="black" stroke="black" points="581.5,-168.79 585,-178.79 588.5,-168.79 581.5,-168.79"/>
</g>
<!-- BrowserModule -->
<g id="node4" class="node">
<title>BrowserModule</title>
<polygon fill="#8dd3c7" stroke="black" points="769.49,-84.8 766.49,-88.8 745.49,-88.8 742.49,-84.8 662.51,-84.8 662.51,-48.8 769.49,-48.8 769.49,-84.8"/>
<text text-anchor="middle" x="716" y="-62.6" font-family="Times,serif" font-size="14.00">BrowserModule</text>
</g>
<!-- BrowserModule&#45;&gt;AppModule -->
<g id="edge3" class="edge">
<title>BrowserModule&#45;&gt;AppModule</title>
<path fill="none" stroke="black" d="M716,-84.83C716,-101.2 716,-122.8 716,-122.8 716,-122.8 636.81,-122.8 636.81,-122.8"/>
<polygon fill="black" stroke="black" points="636.81,-119.3 626.81,-122.8 636.81,-126.3 636.81,-119.3"/>
</g>
<!-- HttpClientModule -->
<g id="node5" class="node">
<title>HttpClientModule</title>
<polygon fill="#8dd3c7" stroke="black" points="644.16,-84.8 641.16,-88.8 620.16,-88.8 617.16,-84.8 525.84,-84.8 525.84,-48.8 644.16,-48.8 644.16,-84.8"/>
<text text-anchor="middle" x="585" y="-62.6" font-family="Times,serif" font-size="14.00">HttpClientModule</text>
</g>
<!-- HttpClientModule&#45;&gt;AppModule -->
<g id="edge4" class="edge">
<title>HttpClientModule&#45;&gt;AppModule</title>
<path fill="none" stroke="black" d="M571.06,-84.91C571.06,-84.91 571.06,-103.79 571.06,-103.79"/>
<polygon fill="black" stroke="black" points="567.56,-103.79 571.06,-113.79 574.56,-103.79 567.56,-103.79"/>
</g>
<!-- HttpClientModule&#45;&gt;AppModule -->
<g id="edge8" class="edge">
<title>HttpClientModule&#45;&gt;AppModule</title>
<path fill="none" stroke="black" d="M598.94,-84.91C598.94,-84.91 598.94,-103.79 598.94,-103.79"/>
<polygon fill="black" stroke="black" points="595.44,-103.79 598.94,-113.79 602.44,-103.79 595.44,-103.79"/>
</g>
<!-- eshopApiModule -->
<g id="node6" class="node">
<title>eshopApiModule</title>
<polygon fill="#8dd3c7" stroke="black" points="507.71,-84.8 504.71,-88.8 483.71,-88.8 480.71,-84.8 394.29,-84.8 394.29,-48.8 507.71,-48.8 507.71,-84.8"/>
<text text-anchor="middle" x="451" y="-62.6" font-family="Times,serif" font-size="14.00">eshopApiModule</text>
</g>
<!-- eshopApiModule&#45;&gt;AppModule -->
<g id="edge5" class="edge">
<title>eshopApiModule&#45;&gt;AppModule</title>
<path fill="none" stroke="black" d="M451,-84.81C451,-100.85 451,-121.8 451,-121.8 451,-121.8 533.34,-121.8 533.34,-121.8"/>
<polygon fill="black" stroke="black" points="533.34,-125.3 543.34,-121.8 533.34,-118.3 533.34,-125.3"/>
</g>
<!-- FormsModule -->
<g id="node7" class="node">
<title>FormsModule</title>
<polygon fill="#8dd3c7" stroke="black" points="376.84,-84.8 373.84,-88.8 352.84,-88.8 349.84,-84.8 281.16,-84.8 281.16,-48.8 376.84,-48.8 376.84,-84.8"/>
<text text-anchor="middle" x="329" y="-62.6" font-family="Times,serif" font-size="14.00">FormsModule</text>
</g>
<!-- FormsModule&#45;&gt;AppModule -->
<g id="edge6" class="edge">
<title>FormsModule&#45;&gt;AppModule</title>
<path fill="none" stroke="black" d="M329,-85.07C329,-103.36 329,-128.8 329,-128.8 329,-128.8 533.3,-128.8 533.3,-128.8"/>
<polygon fill="black" stroke="black" points="533.3,-132.3 543.3,-128.8 533.3,-125.3 533.3,-132.3"/>
</g>
<!-- LoginModule -->
<g id="node8" class="node">
<title>LoginModule</title>
<polygon fill="#8dd3c7" stroke="black" points="263.49,-84.8 260.49,-88.8 239.49,-88.8 236.49,-84.8 170.51,-84.8 170.51,-48.8 263.49,-48.8 263.49,-84.8"/>
<text text-anchor="middle" x="217" y="-62.6" font-family="Times,serif" font-size="14.00">LoginModule</text>
</g>
<!-- LoginModule&#45;&gt;AppModule -->
<g id="edge7" class="edge">
<title>LoginModule&#45;&gt;AppModule</title>
<path fill="none" stroke="black" d="M217,-84.93C217,-105.37 217,-135.8 217,-135.8 217,-135.8 533.14,-135.8 533.14,-135.8"/>
<polygon fill="black" stroke="black" points="533.14,-139.3 543.14,-135.8 533.14,-132.3 533.14,-139.3"/>
</g>
<!-- AppRootingModule -->
<g id="node9" class="node">
<title>AppRootingModule</title>
<polygon fill="#8dd3c7" stroke="black" points="152.28,-84.8 149.28,-88.8 128.28,-88.8 125.28,-84.8 23.72,-84.8 23.72,-48.8 152.28,-48.8 152.28,-84.8"/>
<text text-anchor="middle" x="88" y="-62.6" font-family="Times,serif" font-size="14.00">AppRootingModule</text>
</g>
<!-- AppRootingModule&#45;&gt;AppModule -->
<g id="edge9" class="edge">
<title>AppRootingModule&#45;&gt;AppModule</title>
<path fill="none" stroke="black" d="M88,-84.81C88,-107.29 88,-142.8 88,-142.8 88,-142.8 533.05,-142.8 533.05,-142.8"/>
<polygon fill="black" stroke="black" points="533.05,-146.3 543.05,-142.8 533.05,-139.3 533.05,-146.3"/>
</g>
</g>
</svg>
