<?xml version="1.0" encoding="UTF-8" standalone="no"?>
<!DOCTYPE svg PUBLIC "-//W3C//DTD SVG 1.1//EN"
 "http://www.w3.org/Graphics/SVG/1.1/DTD/svg11.dtd">
<!-- Generated by graphviz version 3.0.0 (20220226.1711)
 -->
<!-- Title: dependencies Pages: 1 -->
<svg width="4555pt" height="451pt"
 viewBox="0.00 0.00 4555.00 450.80" xmlns="http://www.w3.org/2000/svg" xmlns:xlink="http://www.w3.org/1999/xlink">
<g id="graph0" class="graph" transform="scale(1 1) rotate(0) translate(4 446.8)">
<title>dependencies</title>
<polygon fill="white" stroke="transparent" points="-4,4 -4,-446.8 4551,-446.8 4551,4 -4,4"/>
<text text-anchor="middle" x="2273.5" y="-8.2" font-family="sans-serif" font-size="14.00">dependencies</text>
<g id="clust1" class="cluster">
<title>cluster_AppModule</title>
<polygon fill="none" stroke="black" stroke-dasharray="1,5" points="8,-168.8 8,-434.8 967,-434.8 967,-168.8 8,-168.8"/>
</g>
<g id="clust2" class="cluster">
<title>cluster_AppModule_declarations</title>
<polygon fill="none" stroke="black" points="654,-244.8 654,-296.8 959,-296.8 959,-244.8 654,-244.8"/>
</g>
<g id="clust5" class="cluster">
<title>cluster_AppModule_imports</title>
<polygon fill="none" stroke="black" points="16,-176.8 16,-296.8 646,-296.8 646,-176.8 16,-176.8"/>
</g>
<g id="clust7" class="cluster">
<title>cluster_AppModule_bootstrap</title>
<polygon fill="none" stroke="black" points="443,-374.8 443,-426.8 567,-426.8 567,-374.8 443,-374.8"/>
</g>
<g id="clust9" class="cluster">
<title>cluster_LoginModule</title>
<polygon fill="none" stroke="black" stroke-dasharray="1,5" points="975,-100.8 975,-236.8 1575,-236.8 1575,-100.8 975,-100.8"/>
</g>
<g id="clust10" class="cluster">
<title>cluster_LoginModule_declarations</title>
<polygon fill="none" stroke="black" points="1055,-176.8 1055,-228.8 1185,-228.8 1185,-176.8 1055,-176.8"/>
</g>
<g id="clust11" class="cluster">
<title>cluster_LoginModule_LoginComponent_providers</title>
<polygon fill="none" stroke="black" points="1125,-108.8 1125,-160.8 1261,-160.8 1261,-108.8 1125,-108.8"/>
</g>
<g id="clust12" class="cluster">
<title>cluster_LoginModule_imports</title>
<polygon fill="none" stroke="black" points="1269,-108.8 1269,-160.8 1567,-160.8 1567,-108.8 1269,-108.8"/>
</g>
<g id="clust13" class="cluster">
<title>cluster_LoginModule_exports</title>
<polygon fill="none" stroke="black" points="983,-108.8 983,-160.8 1117,-160.8 1117,-108.8 983,-108.8"/>
</g>
<g id="clust16" class="cluster">
<title>cluster_ProductDetailModule</title>
<polygon fill="none" stroke="black" stroke-dasharray="1,5" points="2911,-32.8 2911,-304.8 3337,-304.8 3337,-32.8 2911,-32.8"/>
</g>
<g id="clust17" class="cluster">
<title>cluster_ProductDetailModule_declarations</title>
<polygon fill="none" stroke="black" points="3153,-108.8 3153,-160.8 3329,-160.8 3329,-108.8 3153,-108.8"/>
</g>
<g id="clust18" class="cluster">
<title>cluster_ProductDetailModule_ProductDetailComponent_providers</title>
<polygon fill="none" stroke="black" points="3151,-40.8 3151,-92.8 3329,-92.8 3329,-40.8 3151,-40.8"/>
</g>
<g id="clust19" class="cluster">
<title>cluster_ProductDetailModule_imports</title>
<polygon fill="none" stroke="black" points="2919,-108.8 2919,-160.8 3145,-160.8 3145,-108.8 2919,-108.8"/>
</g>
<g id="clust20" class="cluster">
<title>cluster_ProductDetailModule_exports</title>
<polygon fill="none" stroke="black" points="2943,-244.8 2943,-296.8 3121,-296.8 3121,-244.8 2943,-244.8"/>
</g>
<g id="clust23" class="cluster">
<title>cluster_ProductEditModule</title>
<polygon fill="none" stroke="black" stroke-dasharray="1,5" points="3345,-100.8 3345,-304.8 3747,-304.8 3747,-100.8 3345,-100.8"/>
</g>
<g id="clust24" class="cluster">
<title>cluster_ProductEditModule_declarations</title>
<polygon fill="none" stroke="black" points="3575,-108.8 3575,-160.8 3739,-160.8 3739,-108.8 3575,-108.8"/>
</g>
<g id="clust26" class="cluster">
<title>cluster_ProductEditModule_imports</title>
<polygon fill="none" stroke="black" points="3353,-108.8 3353,-160.8 3567,-160.8 3567,-108.8 3353,-108.8"/>
</g>
<g id="clust27" class="cluster">
<title>cluster_ProductEditModule_exports</title>
<polygon fill="none" stroke="black" points="3376,-244.8 3376,-296.8 3544,-296.8 3544,-244.8 3376,-244.8"/>
</g>
<g id="clust30" class="cluster">
<title>cluster_ProductNewModule</title>
<polygon fill="none" stroke="black" stroke-dasharray="1,5" points="3755,-32.8 3755,-304.8 4165,-304.8 4165,-32.8 3755,-32.8"/>
</g>
<g id="clust31" class="cluster">
<title>cluster_ProductNewModule_declarations</title>
<polygon fill="none" stroke="black" points="3989,-108.8 3989,-160.8 4157,-160.8 4157,-108.8 3989,-108.8"/>
</g>
<g id="clust32" class="cluster">
<title>cluster_ProductNewModule_ProductNewComponent_providers</title>
<polygon fill="none" stroke="black" points="4019,-40.8 4019,-92.8 4127,-92.8 4127,-40.8 4019,-40.8"/>
</g>
<g id="clust33" class="cluster">
<title>cluster_ProductNewModule_imports</title>
<polygon fill="none" stroke="black" points="3763,-108.8 3763,-160.8 3981,-160.8 3981,-108.8 3763,-108.8"/>
</g>
<g id="clust34" class="cluster">
<title>cluster_ProductNewModule_exports</title>
<polygon fill="none" stroke="black" points="3787,-244.8 3787,-296.8 3957,-296.8 3957,-244.8 3787,-244.8"/>
</g>
<g id="clust37" class="cluster">
<title>cluster_ProductsModule</title>
<polygon fill="none" stroke="black" stroke-dasharray="1,5" points="4173,-100.8 4173,-304.8 4539,-304.8 4539,-100.8 4173,-100.8"/>
</g>
<g id="clust38" class="cluster">
<title>cluster_ProductsModule_declarations</title>
<polygon fill="none" stroke="black" points="4385,-108.8 4385,-160.8 4531,-160.8 4531,-108.8 4385,-108.8"/>
</g>
<g id="clust40" class="cluster">
<title>cluster_ProductsModule_imports</title>
<polygon fill="none" stroke="black" points="4181,-108.8 4181,-160.8 4377,-160.8 4377,-108.8 4181,-108.8"/>
</g>
<g id="clust41" class="cluster">
<title>cluster_ProductsModule_exports</title>
<polygon fill="none" stroke="black" points="4204,-244.8 4204,-296.8 4354,-296.8 4354,-244.8 4204,-244.8"/>
</g>
<g id="clust44" class="cluster">
<title>cluster_SharedModule</title>
<polygon fill="none" stroke="black" stroke-dasharray="1,5" points="1923,-168.8 1923,-236.8 2903,-236.8 2903,-168.8 1923,-168.8"/>
</g>
<g id="clust45" class="cluster">
<title>cluster_SharedModule_declarations</title>
<polygon fill="none" stroke="black" points="2775,-176.8 2775,-228.8 2895,-228.8 2895,-176.8 2775,-176.8"/>
</g>
<g id="clust47" class="cluster">
<title>cluster_SharedModule_imports</title>
<polygon fill="none" stroke="black" points="2477,-176.8 2477,-228.8 2767,-228.8 2767,-176.8 2477,-176.8"/>
</g>
<g id="clust48" class="cluster">
<title>cluster_SharedModule_exports</title>
<polygon fill="none" stroke="black" points="1931,-176.8 1931,-228.8 2469,-228.8 2469,-176.8 1931,-176.8"/>
</g>
<g id="clust51" class="cluster">
<title>cluster_eshopApiModule</title>
<polygon fill="none" stroke="black" stroke-dasharray="1,5" points="1583,-168.8 1583,-236.8 1915,-236.8 1915,-168.8 1583,-168.8"/>
</g>
<g id="clust56" class="cluster">
<title>cluster_eshopApiModule_providers</title>
<polygon fill="none" stroke="black" points="1591,-176.8 1591,-228.8 1907,-228.8 1907,-176.8 1591,-176.8"/>
</g>
<!-- AppComponent -->
<g id="node1" class="node">
<title>AppComponent</title>
<polygon fill="#ffffb3" stroke="black" points="950.94,-288.8 845.06,-288.8 845.06,-252.8 950.94,-252.8 950.94,-288.8"/>
<text text-anchor="middle" x="898" y="-266.6" font-family="Times,serif" font-size="14.00">AppComponent</text>
</g>
<!-- AppModule -->
<g id="node3" class="node">
<title>AppModule</title>
<polygon fill="#8dd3c7" stroke="black" points="546.66,-353.8 543.66,-357.8 522.66,-357.8 519.66,-353.8 463.34,-353.8 463.34,-317.8 546.66,-317.8 546.66,-353.8"/>
<text text-anchor="middle" x="505" y="-331.6" font-family="Times,serif" font-size="14.00">AppModule</text>
</g>
<!-- AppComponent&#45;&gt;AppModule -->
<g id="edge1" class="edge">
<title>AppComponent&#45;&gt;AppModule</title>
<path fill="none" stroke="black" d="M898,-289.08C898,-310.12 898,-341.8 898,-341.8 898,-341.8 556.69,-341.8 556.69,-341.8"/>
<polygon fill="black" stroke="black" points="556.69,-338.3 546.69,-341.8 556.69,-345.3 556.69,-338.3"/>
</g>
<!-- PageNotFoundComponent -->
<g id="node2" class="node">
<title>PageNotFoundComponent</title>
<polygon fill="#ffffb3" stroke="black" points="827.83,-288.8 662.17,-288.8 662.17,-252.8 827.83,-252.8 827.83,-288.8"/>
<text text-anchor="middle" x="745" y="-266.6" font-family="Times,serif" font-size="14.00">PageNotFoundComponent</text>
</g>
<!-- PageNotFoundComponent&#45;&gt;AppModule -->
<g id="edge2" class="edge">
<title>PageNotFoundComponent&#45;&gt;AppModule</title>
<path fill="none" stroke="black" d="M745,-288.82C745,-306.17 745,-329.8 745,-329.8 745,-329.8 556.8,-329.8 556.8,-329.8"/>
<polygon fill="black" stroke="black" points="556.8,-326.3 546.8,-329.8 556.8,-333.3 556.8,-326.3"/>
</g>
<!-- AppComponent  -->
<g id="node10" class="node">
<title>AppComponent </title>
<polygon fill="#80b1d3" stroke="black" points="559.44,-418.8 450.56,-418.8 450.56,-382.8 559.44,-382.8 559.44,-418.8"/>
<text text-anchor="middle" x="505" y="-396.6" font-family="Times,serif" font-size="14.00">AppComponent </text>
</g>
<!-- AppModule&#45;&gt;AppComponent  -->
<g id="edge10" class="edge">
<title>AppModule&#45;&gt;AppComponent </title>
<path fill="none" stroke="black" stroke-dasharray="1,5" d="M505,-353.91C505,-353.91 505,-372.79 505,-372.79"/>
<polygon fill="black" stroke="black" points="501.5,-372.79 505,-382.79 508.5,-372.79 501.5,-372.79"/>
</g>
<!-- BrowserModule -->
<g id="node4" class="node">
<title>BrowserModule</title>
<polygon fill="#8dd3c7" stroke="black" points="501.49,-220.8 498.49,-224.8 477.49,-224.8 474.49,-220.8 394.51,-220.8 394.51,-184.8 501.49,-184.8 501.49,-220.8"/>
<text text-anchor="middle" x="448" y="-198.6" font-family="Times,serif" font-size="14.00">BrowserModule</text>
</g>
<!-- BrowserModule&#45;&gt;AppModule -->
<g id="edge3" class="edge">
<title>BrowserModule&#45;&gt;AppModule</title>
<path fill="none" stroke="black" d="M482.33,-221.01C482.33,-221.01 482.33,-307.38 482.33,-307.38"/>
<polygon fill="black" stroke="black" points="478.83,-307.38 482.33,-317.38 485.83,-307.38 478.83,-307.38"/>
</g>
<!-- HttpClientModule -->
<g id="node5" class="node">
<title>HttpClientModule</title>
<polygon fill="#8dd3c7" stroke="black" points="638.16,-220.8 635.16,-224.8 614.16,-224.8 611.16,-220.8 519.84,-220.8 519.84,-184.8 638.16,-184.8 638.16,-220.8"/>
<text text-anchor="middle" x="579" y="-198.6" font-family="Times,serif" font-size="14.00">HttpClientModule</text>
</g>
<!-- HttpClientModule&#45;&gt;AppModule -->
<g id="edge4" class="edge">
<title>HttpClientModule&#45;&gt;AppModule</title>
<path fill="none" stroke="black" d="M519.64,-208.8C515.91,-208.8 513.61,-208.8 513.61,-208.8 513.61,-208.8 513.61,-307.6 513.61,-307.6"/>
<polygon fill="black" stroke="black" points="510.11,-307.6 513.61,-317.6 517.11,-307.6 510.11,-307.6"/>
</g>
<!-- HttpClientModule&#45;&gt;AppModule -->
<g id="edge8" class="edge">
<title>HttpClientModule&#45;&gt;AppModule</title>
<path fill="none" stroke="black" d="M519.67,-196.8C512.45,-196.8 507.55,-196.8 507.55,-196.8 507.55,-196.8 507.55,-307.63 507.55,-307.63"/>
<polygon fill="black" stroke="black" points="504.05,-307.63 507.55,-317.63 511.05,-307.63 504.05,-307.63"/>
</g>
<!-- eshopApiModule -->
<g id="node6" class="node">
<title>eshopApiModule</title>
<polygon fill="#8dd3c7" stroke="black" points="637.71,-288.8 634.71,-292.8 613.71,-292.8 610.71,-288.8 524.29,-288.8 524.29,-252.8 637.71,-252.8 637.71,-288.8"/>
<text text-anchor="middle" x="581" y="-266.6" font-family="Times,serif" font-size="14.00">eshopApiModule</text>
</g>
<!-- HttpClientModule&#45;&gt;eshopApiModule -->
<g id="edge45" class="edge">
<title>HttpClientModule&#45;&gt;eshopApiModule</title>
<path fill="none" stroke="black" d="M552.7,-221.02C552.7,-221.02 552.7,-242.53 552.7,-242.53"/>
<polygon fill="black" stroke="black" points="549.2,-242.53 552.7,-252.53 556.2,-242.53 549.2,-242.53"/>
</g>
<!-- eshopApiModule&#45;&gt;AppModule -->
<g id="edge5" class="edge">
<title>eshopApiModule&#45;&gt;AppModule</title>
<path fill="none" stroke="black" d="M535.61,-288.91C535.61,-288.91 535.61,-307.79 535.61,-307.79"/>
<polygon fill="black" stroke="black" points="532.11,-307.79 535.61,-317.79 539.11,-307.79 532.11,-307.79"/>
</g>
<!-- FormsModule -->
<g id="node7" class="node">
<title>FormsModule</title>
<polygon fill="#8dd3c7" stroke="black" points="229.84,-220.8 226.84,-224.8 205.84,-224.8 202.84,-220.8 134.16,-220.8 134.16,-184.8 229.84,-184.8 229.84,-220.8"/>
<text text-anchor="middle" x="182" y="-198.6" font-family="Times,serif" font-size="14.00">FormsModule</text>
</g>
<!-- FormsModule&#45;&gt;AppModule -->
<g id="edge6" class="edge">
<title>FormsModule&#45;&gt;AppModule</title>
<path fill="none" stroke="black" d="M182,-221.01C182,-257.44 182,-335.8 182,-335.8 182,-335.8 453.1,-335.8 453.1,-335.8"/>
<polygon fill="black" stroke="black" points="453.1,-339.3 463.1,-335.8 453.1,-332.3 453.1,-339.3"/>
</g>
<!-- SharedModule -->
<g id="node14" class="node">
<title>SharedModule</title>
<polygon fill="#8dd3c7" stroke="black" points="1559.43,-152.8 1556.43,-156.8 1535.43,-156.8 1532.43,-152.8 1460.57,-152.8 1460.57,-116.8 1559.43,-116.8 1559.43,-152.8"/>
<text text-anchor="middle" x="1510" y="-130.6" font-family="Times,serif" font-size="14.00">SharedModule</text>
</g>
<!-- FormsModule&#45;&gt;SharedModule -->
<g id="edge40" class="edge">
<title>FormsModule&#45;&gt;SharedModule</title>
<path fill="none" stroke="black" d="M182,-184.74C182,-180.31 182,-176.8 182,-176.8 182,-176.8 1493.6,-176.8 1493.6,-176.8 1493.6,-176.8 1493.6,-162.86 1493.6,-162.86"/>
<polygon fill="black" stroke="black" points="1497.1,-162.86 1493.6,-152.86 1490.1,-162.86 1497.1,-162.86"/>
</g>
<!-- LoginModule -->
<g id="node8" class="node">
<title>LoginModule</title>
<polygon fill="#8dd3c7" stroke="black" points="116.49,-220.8 113.49,-224.8 92.49,-224.8 89.49,-220.8 23.51,-220.8 23.51,-184.8 116.49,-184.8 116.49,-220.8"/>
<text text-anchor="middle" x="70" y="-198.6" font-family="Times,serif" font-size="14.00">LoginModule</text>
</g>
<!-- LoginModule&#45;&gt;AppModule -->
<g id="edge7" class="edge">
<title>LoginModule&#45;&gt;AppModule</title>
<path fill="none" stroke="black" d="M70,-221.07C70,-259.43 70,-344.8 70,-344.8 70,-344.8 453.29,-344.8 453.29,-344.8"/>
<polygon fill="black" stroke="black" points="453.29,-348.3 463.29,-344.8 453.29,-341.3 453.29,-348.3"/>
</g>
<!-- LoginComponent  -->
<g id="node15" class="node">
<title>LoginComponent </title>
<polygon fill="#fb8072" stroke="black" points="1109.27,-152.8 990.73,-152.8 990.73,-116.8 1109.27,-116.8 1109.27,-152.8"/>
<text text-anchor="middle" x="1050" y="-130.6" font-family="Times,serif" font-size="14.00">LoginComponent </text>
</g>
<!-- LoginModule&#45;&gt;LoginComponent  -->
<g id="edge15" class="edge">
<title>LoginModule&#45;&gt;LoginComponent </title>
<path fill="none" stroke="black" stroke-dasharray="5,2" d="M42.1,-184.58C42.1,-164.43 42.1,-134.8 42.1,-134.8 42.1,-134.8 980.71,-134.8 980.71,-134.8"/>
<polygon fill="black" stroke="black" points="980.71,-138.3 990.71,-134.8 980.71,-131.3 980.71,-138.3"/>
</g>
<!-- AppRootingModule -->
<g id="node9" class="node">
<title>AppRootingModule</title>
<polygon fill="#8dd3c7" stroke="black" points="376.28,-220.8 373.28,-224.8 352.28,-224.8 349.28,-220.8 247.72,-220.8 247.72,-184.8 376.28,-184.8 376.28,-220.8"/>
<text text-anchor="middle" x="312" y="-198.6" font-family="Times,serif" font-size="14.00">AppRootingModule</text>
</g>
<!-- AppRootingModule&#45;&gt;AppModule -->
<g id="edge9" class="edge">
<title>AppRootingModule&#45;&gt;AppModule</title>
<path fill="none" stroke="black" d="M312,-220.83C312,-255.22 312,-326.8 312,-326.8 312,-326.8 453.12,-326.8 453.12,-326.8"/>
<polygon fill="black" stroke="black" points="453.12,-330.3 463.12,-326.8 453.12,-323.3 453.12,-330.3"/>
</g>
<!-- LoginComponent -->
<g id="node11" class="node">
<title>LoginComponent</title>
<polygon fill="#ffffb3" stroke="black" points="1177.27,-220.8 1062.73,-220.8 1062.73,-184.8 1177.27,-184.8 1177.27,-220.8"/>
<text text-anchor="middle" x="1120" y="-198.6" font-family="Times,serif" font-size="14.00">LoginComponent</text>
</g>
<!-- LoginComponent&#45;&gt;LoginModule -->
<g id="edge11" class="edge">
<title>LoginComponent&#45;&gt;LoginModule</title>
<path fill="none" stroke="black" d="M1085.88,-184.63C1085.88,-182.35 1085.88,-180.8 1085.88,-180.8 1085.88,-180.8 97.9,-180.8 97.9,-180.8 97.9,-180.8 97.9,-181.18 97.9,-181.18"/>
<polygon fill="black" stroke="black" points="94.4,-174.63 97.9,-184.63 101.4,-174.63 94.4,-174.63"/>
</g>
<!-- InitPresenter -->
<g id="node12" class="node">
<title>InitPresenter</title>
<ellipse fill="#fdb462" stroke="black" cx="1193" cy="-134.8" rx="60.26" ry="18"/>
<text text-anchor="middle" x="1193" y="-130.6" font-family="Times,serif" font-size="14.00">InitPresenter</text>
</g>
<!-- InitPresenter&#45;&gt;LoginComponent -->
<g id="edge12" class="edge">
<title>InitPresenter&#45;&gt;LoginComponent</title>
<path fill="none" stroke="black" d="M1155,-148.89C1155,-148.89 1155,-174.59 1155,-174.59"/>
<polygon fill="black" stroke="black" points="1151.5,-174.59 1155,-184.59 1158.5,-174.59 1151.5,-174.59"/>
</g>
<!-- LoginPageRoutingModule -->
<g id="node13" class="node">
<title>LoginPageRoutingModule</title>
<polygon fill="#8dd3c7" stroke="black" points="1442.82,-152.8 1439.82,-156.8 1418.82,-156.8 1415.82,-152.8 1277.18,-152.8 1277.18,-116.8 1442.82,-116.8 1442.82,-152.8"/>
<text text-anchor="middle" x="1360" y="-130.6" font-family="Times,serif" font-size="14.00">LoginPageRoutingModule</text>
</g>
<!-- LoginPageRoutingModule&#45;&gt;LoginModule -->
<g id="edge13" class="edge">
<title>LoginPageRoutingModule&#45;&gt;LoginModule</title>
<path fill="none" stroke="black" d="M1360,-152.99C1360,-161.08 1360,-168.8 1360,-168.8 1360,-168.8 60.7,-168.8 60.7,-168.8 60.7,-168.8 60.7,-174.61 60.7,-174.61"/>
<polygon fill="black" stroke="black" points="57.2,-174.61 60.7,-184.61 64.2,-174.61 57.2,-174.61"/>
</g>
<!-- SharedModule&#45;&gt;LoginModule -->
<g id="edge14" class="edge">
<title>SharedModule&#45;&gt;LoginModule</title>
<path fill="none" stroke="black" d="M1477.19,-152.91C1477.19,-162.7 1477.19,-172.8 1477.19,-172.8 1477.19,-172.8 79.3,-172.8 79.3,-172.8 79.3,-172.8 79.3,-174.66 79.3,-174.66"/>
<polygon fill="black" stroke="black" points="75.8,-174.66 79.3,-184.66 82.8,-174.66 75.8,-174.66"/>
</g>
<!-- ProductDetailModule -->
<g id="node17" class="node">
<title>ProductDetailModule</title>
<polygon fill="#8dd3c7" stroke="black" points="3100.81,-220.8 3097.81,-224.8 3076.81,-224.8 3073.81,-220.8 2963.19,-220.8 2963.19,-184.8 3100.81,-184.8 3100.81,-220.8"/>
<text text-anchor="middle" x="3032" y="-198.6" font-family="Times,serif" font-size="14.00">ProductDetailModule</text>
</g>
<!-- SharedModule&#45;&gt;ProductDetailModule -->
<g id="edge19" class="edge">
<title>SharedModule&#45;&gt;ProductDetailModule</title>
<path fill="none" stroke="black" d="M1559.31,-120.8C1807.38,-120.8 2907.06,-120.8 2907.06,-120.8 2907.06,-120.8 2907.06,-202.8 2907.06,-202.8 2907.06,-202.8 2953.32,-202.8 2953.32,-202.8"/>
<polygon fill="black" stroke="black" points="2953.32,-206.3 2963.32,-202.8 2953.32,-199.3 2953.32,-206.3"/>
</g>
<!-- ProductEditModule -->
<g id="node22" class="node">
<title>ProductEditModule</title>
<polygon fill="#8dd3c7" stroke="black" points="3523.44,-220.8 3520.44,-224.8 3499.44,-224.8 3496.44,-220.8 3396.56,-220.8 3396.56,-184.8 3523.44,-184.8 3523.44,-220.8"/>
<text text-anchor="middle" x="3460" y="-198.6" font-family="Times,serif" font-size="14.00">ProductEditModule</text>
</g>
<!-- SharedModule&#45;&gt;ProductEditModule -->
<g id="edge24" class="edge">
<title>SharedModule&#45;&gt;ProductEditModule</title>
<path fill="none" stroke="black" d="M1510,-152.94C1510,-159.26 1510,-164.8 1510,-164.8 1510,-164.8 3438.93,-164.8 3438.93,-164.8 3438.93,-164.8 3438.93,-174.69 3438.93,-174.69"/>
<polygon fill="black" stroke="black" points="3435.43,-174.69 3438.93,-184.69 3442.43,-174.69 3435.43,-174.69"/>
</g>
<!-- ProductNewModule -->
<g id="node26" class="node">
<title>ProductNewModule</title>
<polygon fill="#8dd3c7" stroke="black" points="3936.54,-220.8 3933.54,-224.8 3912.54,-224.8 3909.54,-220.8 3807.46,-220.8 3807.46,-184.8 3936.54,-184.8 3936.54,-220.8"/>
<text text-anchor="middle" x="3872" y="-198.6" font-family="Times,serif" font-size="14.00">ProductNewModule</text>
</g>
<!-- SharedModule&#45;&gt;ProductNewModule -->
<g id="edge30" class="edge">
<title>SharedModule&#45;&gt;ProductNewModule</title>
<path fill="none" stroke="black" d="M1526.4,-152.86C1526.4,-157.29 1526.4,-160.8 1526.4,-160.8 1526.4,-160.8 3850.41,-160.8 3850.41,-160.8 3850.41,-160.8 3850.41,-174.74 3850.41,-174.74"/>
<polygon fill="black" stroke="black" points="3846.91,-174.74 3850.41,-184.74 3853.91,-174.74 3846.91,-174.74"/>
</g>
<!-- ProductsModule -->
<g id="node31" class="node">
<title>ProductsModule</title>
<polygon fill="#8dd3c7" stroke="black" points="4333.05,-220.8 4330.05,-224.8 4309.05,-224.8 4306.05,-220.8 4224.95,-220.8 4224.95,-184.8 4333.05,-184.8 4333.05,-220.8"/>
<text text-anchor="middle" x="4279" y="-198.6" font-family="Times,serif" font-size="14.00">ProductsModule</text>
</g>
<!-- SharedModule&#45;&gt;ProductsModule -->
<g id="edge35" class="edge">
<title>SharedModule&#45;&gt;ProductsModule</title>
<path fill="none" stroke="black" d="M1542.81,-152.97C1542.81,-155.25 1542.81,-156.8 1542.81,-156.8 1542.81,-156.8 4260.91,-156.8 4260.91,-156.8 4260.91,-156.8 4260.91,-174.62 4260.91,-174.62"/>
<polygon fill="black" stroke="black" points="4257.41,-174.62 4260.91,-184.62 4264.41,-174.62 4257.41,-174.62"/>
</g>
<!-- StarComponent  -->
<g id="node37" class="node">
<title>StarComponent </title>
<polygon fill="#fb8072" stroke="black" points="2460.88,-220.8 2353.12,-220.8 2353.12,-184.8 2460.88,-184.8 2460.88,-220.8"/>
<text text-anchor="middle" x="2407" y="-198.6" font-family="Times,serif" font-size="14.00">StarComponent </text>
</g>
<!-- SharedModule&#45;&gt;StarComponent  -->
<g id="edge41" class="edge">
<title>SharedModule&#45;&gt;StarComponent </title>
<path fill="none" stroke="black" stroke-dasharray="5,2" d="M1559.5,-136.8C1747.55,-136.8 2407,-136.8 2407,-136.8 2407,-136.8 2407,-174.77 2407,-174.77"/>
<polygon fill="black" stroke="black" points="2403.5,-174.77 2407,-184.77 2410.5,-174.77 2403.5,-174.77"/>
</g>
<!-- CommonModule  -->
<g id="node38" class="node">
<title>CommonModule </title>
<polygon fill="#fb8072" stroke="black" points="2335.67,-220.8 2220.33,-220.8 2220.33,-184.8 2335.67,-184.8 2335.67,-220.8"/>
<text text-anchor="middle" x="2278" y="-198.6" font-family="Times,serif" font-size="14.00">CommonModule </text>
</g>
<!-- SharedModule&#45;&gt;CommonModule  -->
<g id="edge42" class="edge">
<title>SharedModule&#45;&gt;CommonModule </title>
<path fill="none" stroke="black" stroke-dasharray="5,2" d="M1559.5,-140.8C1729.35,-140.8 2278,-140.8 2278,-140.8 2278,-140.8 2278,-174.53 2278,-174.53"/>
<polygon fill="black" stroke="black" points="2274.5,-174.53 2278,-184.53 2281.5,-174.53 2274.5,-174.53"/>
</g>
<!-- ReactiveFormsModule  -->
<g id="node39" class="node">
<title>ReactiveFormsModule </title>
<polygon fill="#fb8072" stroke="black" points="2202.81,-220.8 2055.19,-220.8 2055.19,-184.8 2202.81,-184.8 2202.81,-220.8"/>
<text text-anchor="middle" x="2129" y="-198.6" font-family="Times,serif" font-size="14.00">ReactiveFormsModule </text>
</g>
<!-- SharedModule&#45;&gt;ReactiveFormsModule  -->
<g id="edge43" class="edge">
<title>SharedModule&#45;&gt;ReactiveFormsModule </title>
<path fill="none" stroke="black" stroke-dasharray="5,2" d="M1559.35,-144.8C1706,-144.8 2129,-144.8 2129,-144.8 2129,-144.8 2129,-174.77 2129,-174.77"/>
<polygon fill="black" stroke="black" points="2125.5,-174.77 2129,-184.77 2132.5,-174.77 2125.5,-174.77"/>
</g>
<!-- FormsModule  -->
<g id="node40" class="node">
<title>FormsModule </title>
<polygon fill="#fb8072" stroke="black" points="2037.34,-220.8 1938.66,-220.8 1938.66,-184.8 2037.34,-184.8 2037.34,-220.8"/>
<text text-anchor="middle" x="1988" y="-198.6" font-family="Times,serif" font-size="14.00">FormsModule </text>
</g>
<!-- SharedModule&#45;&gt;FormsModule  -->
<g id="edge44" class="edge">
<title>SharedModule&#45;&gt;FormsModule </title>
<path fill="none" stroke="black" stroke-dasharray="5,2" d="M1559.35,-148.8C1681.48,-148.8 1988,-148.8 1988,-148.8 1988,-148.8 1988,-174.52 1988,-174.52"/>
<polygon fill="black" stroke="black" points="1984.5,-174.52 1988,-184.52 1991.5,-174.52 1984.5,-174.52"/>
</g>
<!-- ProductDetailComponent -->
<g id="node16" class="node">
<title>ProductDetailComponent</title>
<polygon fill="#ffffb3" stroke="black" points="3320.59,-152.8 3161.41,-152.8 3161.41,-116.8 3320.59,-116.8 3320.59,-152.8"/>
<text text-anchor="middle" x="3241" y="-130.6" font-family="Times,serif" font-size="14.00">ProductDetailComponent</text>
</g>
<!-- ProductDetailComponent&#45;&gt;ProductDetailModule -->
<g id="edge16" class="edge">
<title>ProductDetailComponent&#45;&gt;ProductDetailModule</title>
<path fill="none" stroke="black" d="M3241,-153.02C3241,-173.17 3241,-202.8 3241,-202.8 3241,-202.8 3110.72,-202.8 3110.72,-202.8"/>
<polygon fill="black" stroke="black" points="3110.72,-199.3 3100.72,-202.8 3110.72,-206.3 3110.72,-199.3"/>
</g>
<!-- ProductDetailComponent  -->
<g id="node20" class="node">
<title>ProductDetailComponent </title>
<polygon fill="#fb8072" stroke="black" points="3113.09,-288.8 2950.91,-288.8 2950.91,-252.8 3113.09,-252.8 3113.09,-288.8"/>
<text text-anchor="middle" x="3032" y="-266.6" font-family="Times,serif" font-size="14.00">ProductDetailComponent </text>
</g>
<!-- ProductDetailModule&#45;&gt;ProductDetailComponent  -->
<g id="edge20" class="edge">
<title>ProductDetailModule&#45;&gt;ProductDetailComponent </title>
<path fill="none" stroke="black" stroke-dasharray="5,2" d="M3032,-221.02C3032,-221.02 3032,-242.53 3032,-242.53"/>
<polygon fill="black" stroke="black" points="3028.5,-242.53 3032,-252.53 3035.5,-242.53 3028.5,-242.53"/>
</g>
<!-- ProductsPresenter -->
<g id="node18" class="node">
<title>ProductsPresenter</title>
<ellipse fill="#fdb462" stroke="black" cx="3240" cy="-66.8" rx="80.53" ry="18"/>
<text text-anchor="middle" x="3240" y="-62.6" font-family="Times,serif" font-size="14.00">ProductsPresenter</text>
</g>
<!-- ProductsPresenter&#45;&gt;ProductDetailComponent -->
<g id="edge17" class="edge">
<title>ProductsPresenter&#45;&gt;ProductDetailComponent</title>
<path fill="none" stroke="black" d="M3214.49,-83.96C3214.49,-83.96 3214.49,-106.45 3214.49,-106.45"/>
<polygon fill="black" stroke="black" points="3210.99,-106.45 3214.49,-116.45 3217.99,-106.45 3210.99,-106.45"/>
</g>
<!-- ProductEditComponent -->
<g id="node21" class="node">
<title>ProductEditComponent</title>
<polygon fill="#ffffb3" stroke="black" points="3731.21,-152.8 3582.79,-152.8 3582.79,-116.8 3731.21,-116.8 3731.21,-152.8"/>
<text text-anchor="middle" x="3657" y="-130.6" font-family="Times,serif" font-size="14.00">ProductEditComponent</text>
</g>
<!-- ProductsPresenter&#45;&gt;ProductEditComponent -->
<g id="edge22" class="edge">
<title>ProductsPresenter&#45;&gt;ProductEditComponent</title>
<path fill="none" stroke="black" d="M3316.48,-72.8C3436.87,-72.8 3657,-72.8 3657,-72.8 3657,-72.8 3657,-106.53 3657,-106.53"/>
<polygon fill="black" stroke="black" points="3653.5,-106.53 3657,-116.53 3660.5,-106.53 3653.5,-106.53"/>
</g>
<!-- ProductNewComponent -->
<g id="node25" class="node">
<title>ProductNewComponent</title>
<polygon fill="#ffffb3" stroke="black" points="4148.82,-152.8 3997.18,-152.8 3997.18,-116.8 4148.82,-116.8 4148.82,-152.8"/>
<text text-anchor="middle" x="4073" y="-130.6" font-family="Times,serif" font-size="14.00">ProductNewComponent</text>
</g>
<!-- ProductsPresenter&#45;&gt;ProductNewComponent -->
<g id="edge27" class="edge">
<title>ProductsPresenter&#45;&gt;ProductNewComponent</title>
<path fill="none" stroke="black" d="M3316.48,-60.8C3511.49,-60.8 4011.95,-60.8 4011.95,-60.8 4011.95,-60.8 4011.95,-106.51 4011.95,-106.51"/>
<polygon fill="black" stroke="black" points="4008.45,-106.51 4011.95,-116.51 4015.45,-106.51 4008.45,-106.51"/>
</g>
<!-- ProductsComponent -->
<g id="node30" class="node">
<title>ProductsComponent</title>
<polygon fill="#ffffb3" stroke="black" points="4523.33,-152.8 4392.67,-152.8 4392.67,-116.8 4523.33,-116.8 4523.33,-152.8"/>
<text text-anchor="middle" x="4458" y="-130.6" font-family="Times,serif" font-size="14.00">ProductsComponent</text>
</g>
<!-- ProductsPresenter&#45;&gt;ProductsComponent -->
<g id="edge33" class="edge">
<title>ProductsPresenter&#45;&gt;ProductsComponent</title>
<path fill="none" stroke="black" d="M3267.51,-83.8C3267.51,-92.3 3267.51,-100.8 3267.51,-100.8 3267.51,-100.8 4458,-100.8 4458,-100.8 4458,-100.8 4458,-106.61 4458,-106.61"/>
<polygon fill="black" stroke="black" points="4454.5,-106.61 4458,-116.61 4461.5,-106.61 4454.5,-106.61"/>
</g>
<!-- ProductDetailPageRoutingModule -->
<g id="node19" class="node">
<title>ProductDetailPageRoutingModule</title>
<polygon fill="#8dd3c7" stroke="black" points="3136.64,-152.8 3133.64,-156.8 3112.64,-156.8 3109.64,-152.8 2927.36,-152.8 2927.36,-116.8 3136.64,-116.8 3136.64,-152.8"/>
<text text-anchor="middle" x="3032" y="-130.6" font-family="Times,serif" font-size="14.00">ProductDetailPageRoutingModule</text>
</g>
<!-- ProductDetailPageRoutingModule&#45;&gt;ProductDetailModule -->
<g id="edge18" class="edge">
<title>ProductDetailPageRoutingModule&#45;&gt;ProductDetailModule</title>
<path fill="none" stroke="black" d="M3032,-153.02C3032,-153.02 3032,-174.53 3032,-174.53"/>
<polygon fill="black" stroke="black" points="3028.5,-174.53 3032,-184.53 3035.5,-174.53 3028.5,-174.53"/>
</g>
<!-- ProductEditComponent&#45;&gt;ProductEditModule -->
<g id="edge21" class="edge">
<title>ProductEditComponent&#45;&gt;ProductEditModule</title>
<path fill="none" stroke="black" d="M3657,-153.02C3657,-173.17 3657,-202.8 3657,-202.8 3657,-202.8 3533.42,-202.8 3533.42,-202.8"/>
<polygon fill="black" stroke="black" points="3533.42,-199.3 3523.42,-202.8 3533.42,-206.3 3533.42,-199.3"/>
</g>
<!-- ProductEditComponent  -->
<g id="node24" class="node">
<title>ProductEditComponent </title>
<polygon fill="#fb8072" stroke="black" points="3535.71,-288.8 3384.29,-288.8 3384.29,-252.8 3535.71,-252.8 3535.71,-288.8"/>
<text text-anchor="middle" x="3460" y="-266.6" font-family="Times,serif" font-size="14.00">ProductEditComponent </text>
</g>
<!-- ProductEditModule&#45;&gt;ProductEditComponent  -->
<g id="edge25" class="edge">
<title>ProductEditModule&#45;&gt;ProductEditComponent </title>
<path fill="none" stroke="black" stroke-dasharray="5,2" d="M3460,-221.02C3460,-221.02 3460,-242.53 3460,-242.53"/>
<polygon fill="black" stroke="black" points="3456.5,-242.53 3460,-252.53 3463.5,-242.53 3456.5,-242.53"/>
</g>
<!-- ProductEditPageRoutingModule -->
<g id="node23" class="node">
<title>ProductEditPageRoutingModule</title>
<polygon fill="#8dd3c7" stroke="black" points="3559.27,-152.8 3556.27,-156.8 3535.27,-156.8 3532.27,-152.8 3360.73,-152.8 3360.73,-116.8 3559.27,-116.8 3559.27,-152.8"/>
<text text-anchor="middle" x="3460" y="-130.6" font-family="Times,serif" font-size="14.00">ProductEditPageRoutingModule</text>
</g>
<!-- ProductEditPageRoutingModule&#45;&gt;ProductEditModule -->
<g id="edge23" class="edge">
<title>ProductEditPageRoutingModule&#45;&gt;ProductEditModule</title>
<path fill="none" stroke="black" d="M3481.07,-153.02C3481.07,-153.02 3481.07,-174.53 3481.07,-174.53"/>
<polygon fill="black" stroke="black" points="3477.57,-174.53 3481.07,-184.53 3484.57,-174.53 3477.57,-174.53"/>
</g>
<!-- ProductNewComponent&#45;&gt;ProductNewModule -->
<g id="edge26" class="edge">
<title>ProductNewComponent&#45;&gt;ProductNewModule</title>
<path fill="none" stroke="black" d="M4073,-153.02C4073,-173.17 4073,-202.8 4073,-202.8 4073,-202.8 3946.7,-202.8 3946.7,-202.8"/>
<polygon fill="black" stroke="black" points="3946.7,-199.3 3936.7,-202.8 3946.7,-206.3 3946.7,-199.3"/>
</g>
<!-- ProductNewComponent  -->
<g id="node29" class="node">
<title>ProductNewComponent </title>
<polygon fill="#fb8072" stroke="black" points="3949.32,-288.8 3794.68,-288.8 3794.68,-252.8 3949.32,-252.8 3949.32,-288.8"/>
<text text-anchor="middle" x="3872" y="-266.6" font-family="Times,serif" font-size="14.00">ProductNewComponent </text>
</g>
<!-- ProductNewModule&#45;&gt;ProductNewComponent  -->
<g id="edge31" class="edge">
<title>ProductNewModule&#45;&gt;ProductNewComponent </title>
<path fill="none" stroke="black" stroke-dasharray="5,2" d="M3872,-221.02C3872,-221.02 3872,-242.53 3872,-242.53"/>
<polygon fill="black" stroke="black" points="3868.5,-242.53 3872,-252.53 3875.5,-242.53 3868.5,-242.53"/>
</g>
<!-- DatePipe -->
<g id="node27" class="node">
<title>DatePipe</title>
<ellipse fill="#fdb462" stroke="black" cx="4073" cy="-66.8" rx="46.37" ry="18"/>
<text text-anchor="middle" x="4073" y="-62.6" font-family="Times,serif" font-size="14.00">DatePipe</text>
</g>
<!-- DatePipe&#45;&gt;ProductNewComponent -->
<g id="edge28" class="edge">
<title>DatePipe&#45;&gt;ProductNewComponent</title>
<path fill="none" stroke="black" d="M4073,-85.02C4073,-85.02 4073,-106.53 4073,-106.53"/>
<polygon fill="black" stroke="black" points="4069.5,-106.53 4073,-116.53 4076.5,-106.53 4069.5,-106.53"/>
</g>
<!-- ProductNewPageRoutingModule -->
<g id="node28" class="node">
<title>ProductNewPageRoutingModule</title>
<polygon fill="#8dd3c7" stroke="black" points="3972.87,-152.8 3969.87,-156.8 3948.87,-156.8 3945.87,-152.8 3771.13,-152.8 3771.13,-116.8 3972.87,-116.8 3972.87,-152.8"/>
<text text-anchor="middle" x="3872" y="-130.6" font-family="Times,serif" font-size="14.00">ProductNewPageRoutingModule</text>
</g>
<!-- ProductNewPageRoutingModule&#45;&gt;ProductNewModule -->
<g id="edge29" class="edge">
<title>ProductNewPageRoutingModule&#45;&gt;ProductNewModule</title>
<path fill="none" stroke="black" d="M3893.59,-153.02C3893.59,-153.02 3893.59,-174.53 3893.59,-174.53"/>
<polygon fill="black" stroke="black" points="3890.09,-174.53 3893.59,-184.53 3897.09,-174.53 3890.09,-174.53"/>
</g>
<!-- ProductsComponent&#45;&gt;ProductsModule -->
<g id="edge32" class="edge">
<title>ProductsComponent&#45;&gt;ProductsModule</title>
<path fill="none" stroke="black" d="M4458,-153.02C4458,-173.17 4458,-202.8 4458,-202.8 4458,-202.8 4343.19,-202.8 4343.19,-202.8"/>
<polygon fill="black" stroke="black" points="4343.19,-199.3 4333.19,-202.8 4343.19,-206.3 4343.19,-199.3"/>
</g>
<!-- ProductsComponent  -->
<g id="node33" class="node">
<title>ProductsComponent </title>
<polygon fill="#fb8072" stroke="black" points="4345.83,-288.8 4212.17,-288.8 4212.17,-252.8 4345.83,-252.8 4345.83,-288.8"/>
<text text-anchor="middle" x="4279" y="-266.6" font-family="Times,serif" font-size="14.00">ProductsComponent </text>
</g>
<!-- ProductsModule&#45;&gt;ProductsComponent  -->
<g id="edge36" class="edge">
<title>ProductsModule&#45;&gt;ProductsComponent </title>
<path fill="none" stroke="black" stroke-dasharray="5,2" d="M4279,-221.02C4279,-221.02 4279,-242.53 4279,-242.53"/>
<polygon fill="black" stroke="black" points="4275.5,-242.53 4279,-252.53 4282.5,-242.53 4275.5,-242.53"/>
</g>
<!-- ProductsPageRoutingModule -->
<g id="node32" class="node">
<title>ProductsPageRoutingModule</title>
<polygon fill="#8dd3c7" stroke="black" points="4369.38,-152.8 4366.38,-156.8 4345.38,-156.8 4342.38,-152.8 4188.62,-152.8 4188.62,-116.8 4369.38,-116.8 4369.38,-152.8"/>
<text text-anchor="middle" x="4279" y="-130.6" font-family="Times,serif" font-size="14.00">ProductsPageRoutingModule</text>
</g>
<!-- ProductsPageRoutingModule&#45;&gt;ProductsModule -->
<g id="edge34" class="edge">
<title>ProductsPageRoutingModule&#45;&gt;ProductsModule</title>
<path fill="none" stroke="black" d="M4297.09,-153.02C4297.09,-153.02 4297.09,-174.53 4297.09,-174.53"/>
<polygon fill="black" stroke="black" points="4293.59,-174.53 4297.09,-184.53 4300.59,-174.53 4293.59,-174.53"/>
</g>
<!-- StarComponent -->
<g id="node34" class="node">
<title>StarComponent</title>
<polygon fill="#ffffb3" stroke="black" points="2886.88,-220.8 2783.12,-220.8 2783.12,-184.8 2886.88,-184.8 2886.88,-220.8"/>
<text text-anchor="middle" x="2835" y="-198.6" font-family="Times,serif" font-size="14.00">StarComponent</text>
</g>
<!-- StarComponent&#45;&gt;SharedModule -->
<g id="edge37" class="edge">
<title>StarComponent&#45;&gt;SharedModule</title>
<path fill="none" stroke="black" d="M2835,-184.71C2835,-161.67 2835,-124.8 2835,-124.8 2835,-124.8 1569.52,-124.8 1569.52,-124.8"/>
<polygon fill="black" stroke="black" points="1569.52,-121.3 1559.52,-124.8 1569.52,-128.3 1569.52,-121.3"/>
</g>
<!-- CommonModule -->
<g id="node35" class="node">
<title>CommonModule</title>
<polygon fill="#8dd3c7" stroke="black" points="2758.67,-220.8 2755.67,-224.8 2734.67,-224.8 2731.67,-220.8 2647.33,-220.8 2647.33,-184.8 2758.67,-184.8 2758.67,-220.8"/>
<text text-anchor="middle" x="2703" y="-198.6" font-family="Times,serif" font-size="14.00">CommonModule</text>
</g>
<!-- CommonModule&#45;&gt;SharedModule -->
<g id="edge38" class="edge">
<title>CommonModule&#45;&gt;SharedModule</title>
<path fill="none" stroke="black" d="M2703,-184.51C2703,-162.59 2703,-128.8 2703,-128.8 2703,-128.8 1569.37,-128.8 1569.37,-128.8"/>
<polygon fill="black" stroke="black" points="1569.37,-125.3 1559.37,-128.8 1569.37,-132.3 1569.37,-125.3"/>
</g>
<!-- ReactiveFormsModule -->
<g id="node36" class="node">
<title>ReactiveFormsModule</title>
<polygon fill="#8dd3c7" stroke="black" points="2629.31,-220.8 2626.31,-224.8 2605.31,-224.8 2602.31,-220.8 2484.69,-220.8 2484.69,-184.8 2629.31,-184.8 2629.31,-220.8"/>
<text text-anchor="middle" x="2557" y="-198.6" font-family="Times,serif" font-size="14.00">ReactiveFormsModule</text>
</g>
<!-- ReactiveFormsModule&#45;&gt;SharedModule -->
<g id="edge39" class="edge">
<title>ReactiveFormsModule&#45;&gt;SharedModule</title>
<path fill="none" stroke="black" d="M2557,-184.77C2557,-164.03 2557,-132.8 2557,-132.8 2557,-132.8 1569.44,-132.8 1569.44,-132.8"/>
<polygon fill="black" stroke="black" points="1569.44,-129.3 1559.44,-132.8 1569.44,-136.3 1569.44,-129.3"/>
</g>
<!-- Http2Eshop -->
<g id="node41" class="node">
<title>Http2Eshop</title>
<ellipse fill="#fdb462" stroke="black" cx="1842" cy="-202.8" rx="57.35" ry="18"/>
<text text-anchor="middle" x="1842" y="-198.6" font-family="Times,serif" font-size="14.00">Http2Eshop</text>
</g>
<!-- Http2Eshop&#45;&gt;eshopApiModule -->
<g id="edge46" class="edge">
<title>Http2Eshop&#45;&gt;eshopApiModule</title>
<path fill="none" stroke="black" d="M1842,-220.93C1842,-231.51 1842,-242.8 1842,-242.8 1842,-242.8 609.3,-242.8 609.3,-242.8 609.3,-242.8 609.3,-243.78 609.3,-243.78"/>
<polygon fill="black" stroke="black" points="605.8,-242.59 609.3,-252.59 612.8,-242.59 605.8,-242.59"/>
</g>
<!-- AuthenticationAPI -->
<g id="node42" class="node">
<title>AuthenticationAPI</title>
<ellipse fill="#fdb462" stroke="black" cx="1683" cy="-202.8" rx="83.97" ry="18"/>
<text text-anchor="middle" x="1683" y="-198.6" font-family="Times,serif" font-size="14.00">AuthenticationAPI</text>
</g>
<!-- AuthenticationAPI&#45;&gt;eshopApiModule -->
<g id="edge47" class="edge">
<title>AuthenticationAPI&#45;&gt;eshopApiModule</title>
<path fill="none" stroke="black" d="M1683,-221C1683,-226.83 1683,-231.8 1683,-231.8 1683,-231.8 581,-231.8 581,-231.8 581,-231.8 581,-242.67 581,-242.67"/>
<polygon fill="black" stroke="black" points="577.5,-242.67 581,-252.67 584.5,-242.67 577.5,-242.67"/>
</g>
</g>
</svg>
